<svg xmlns="http://www.w3.org/2000/svg" viewBox="0 0 48.11 55.01"><defs><style>.cls-1{fill:#303e45;}.cls-2{fill:#00b1d4;}.cls-3{fill:#ffb700;}.cls-4{fill:#e60c96;}</style></defs><g id="Layer_2" data-name="Layer 2"><g id="all"><g id="logo"><g id="Rectangle_1" data-name="Rectangle 1"><path class="cls-1" d="M0,13.74V41.23L24.08,55V27.52ZM10,42.38,4,38.94V20.63l6,3.45Zm10,5.74-6-3.44V37.85l6,3.44Zm0-11.42-6-3.44V26.37l6,3.44Z"/></g><g id="Rectangle_1_copy" data-name="Rectangle 1 copy"><polygon class="cls-2" points="8.15 9.13 4.14 11.43 28.14 25.16 28.14 52.64 32.15 50.35 32.15 22.86 8.15 9.13"/></g><g id="Rectangle_1_copy_2" data-name="Rectangle 1 copy 2"><polygon class="cls-3" points="16.18 4.54 12.16 6.83 36.07 20.51 36.07 48.1 40.09 45.81 40.09 18.22 16.18 4.54"/></g><g id="Rectangle_1_copy_3" data-name="Rectangle 1 copy 3"><polygon class="cls-4" points="24.11 0 20.1 2.29 44.1 16.03 44.1 43.52 48.11 41.22 48.11 13.73 24.11 0"/></g></g></g></g></svg>