<?xml version="1.0" standalone="no"?>
<!DOCTYPE svg PUBLIC "-//W3C//DTD SVG 1.1//EN" "http://www.w3.org/Graphics/SVG/1.1/DTD/svg11.dtd">
<svg xmlns="http://www.w3.org/2000/svg">
<defs >
<font id="Monoton" horiz-adv-x="1394" ><font-face
    font-family="Monoton"
    units-per-em="2048"
    panose-1="0 0 0 0 0 0 0 0 0 0"
    ascent="2366"
    descent="-822"
    alphabetic="0" />
<glyph unicode=" " glyph-name="space" horiz-adv-x="222" />
<glyph unicode="!" glyph-name="exclam" horiz-adv-x="689" d="M94 216V288H598V216H94ZM94 72V144H598V72H94ZM94 -72V0H598V-72H94ZM526 1656H598V432H526V1656ZM382 1656H454V432H382V1656ZM238 1656H310V432H238V1656ZM94 1656H166V432H94V1656Z" />
<glyph unicode="&quot;" glyph-name="quotedbl" horiz-adv-x="1103" d="M947 1007V1656H1019V1007H947ZM803 1007V1656H875V1007H803ZM659 1007V1656H731V1007H659ZM372 1007V1656H444V1007H372ZM228 1007V1656H300V1007H228ZM84 1007V1656H156V1007H84Z" />
<glyph unicode="#" glyph-name="numbersign" horiz-adv-x="2078" d="M1110 527L1092 455H818L837 527H1110ZM1074 383L1056 311H781L800 383H1074ZM1037 237L1020 167H744L762 237H1037ZM1820 527L1802 455H1548L1567 527H1820ZM1784 383L1766 311H1511L1530 383H1784ZM1747
237L1730 167H1474L1492 237H1747ZM384 527L366 455H112L131 527H384ZM348 383L330 311H75L94 383H348ZM311 237L294 167H38L56 237H311ZM1328 1408L1310 1336H1036L1055 1408H1328ZM1292 1264L1274 1192H999L1018 1264H1292ZM1255 1118L1238 1048H962L980 1118H1255ZM2038
1408L2020 1336H1766L1785 1408H2038ZM2002 1264L1984 1192H1729L1748 1264H2002ZM1965 1118L1948 1048H1692L1710 1118H1965ZM722 1728H797L334 -121H259L722 1728ZM602 1408L584 1336H330L349 1408H602ZM566 1264L548 1192H293L312 1264H566ZM529 1118L512 1048H256L274
1118H529ZM1022 1728H1096L632 -121H558L1022 1728ZM872 1728H947L483 -121H409L872 1728ZM1749 1728H1823L1359 -121H1285L1749 1728ZM1599 1728H1674L1210 -121H1136L1599 1728ZM1449 1728H1524L1061 -121H986L1449 1728Z" />
<glyph unicode="$" glyph-name="dollar" horiz-adv-x="1405" d="M649 1008H770Q926 1008 1040 938T1211 756T1267 504Q1267 399 1229 308T1119 148T937 40T689 0Q514 0 361 50T105 193L47 150Q159 45 327 -13T689 -72Q812 -72 917 -43T1099 39T1230 164T1312 322T1339
504Q1339 622 1302 725T1195 908T1017 1034T773 1080H649Q606 1080 590 1099T574 1152T603 1205T719 1224Q895 1224 965 1192L1023 1236Q921 1296 719 1296Q504 1296 504 1152Q504 1087 538 1048T649 1008ZM763 936H649Q532 936 481 995T429 1152Q429 1249 498
1308T719 1368Q953 1368 1078 1282L1135 1326Q1064 1381 955 1410T719 1440Q538 1440 448 1360T357 1152T430 944T649 864H762Q936 864 1029 762T1123 504Q1123 346 1012 245T689 144Q546 144 422 181T215 285L159 240Q251 160 390 116T689 72Q929 72 1062 194T1195
504Q1195 688 1081 812T763 936ZM759 792H649Q473 792 379 893T285 1152Q285 1310 396 1411T719 1512Q862 1512 986 1475T1192 1371L1248 1416Q1156 1496 1018 1540T719 1584Q479 1584 346 1462T213 1152T328 843T649 720H758Q875 720 927 661T979 504T910 348T689
288Q454 288 329 374L272 330Q343 275 452 246T689 216Q870 216 960 296T1051 504Q1051 630 978 711T759 792ZM759 648H649Q489 648 372 716T198 898T141 1152Q141 1257 179 1348T289 1508T471 1616T719 1656Q894 1656 1047 1606T1302 1463L1360 1506Q1248 1611
1080 1669T719 1728Q596 1728 491 1699T309 1617T178 1492T96 1334T69 1152Q69 1032 107 928T216 745T399 621T649 576H757Q801 576 817 557T834 504Q834 470 805 451T689 432Q512 432 442 464L384 420Q486 360 689 360Q904 360 904 504Q904 568 870 608T759 648ZM834
-109V-298H762V-114L834 -109ZM546 -298V-104L618 -114V-298H546ZM834 1944V1755L762 1760V1944H834ZM546 1750V1944H618V1760L546 1750Z" />
<glyph unicode="%" glyph-name="percent" horiz-adv-x="3082" d="M1831 416T1831 540T1879 777T2008 973T2201 1103T2435 1152Q2555 1152 2665 1104T2855 973T2982 778T3029 540T2982 303T2855 107T2665 -23T2435 -72Q2313 -72 2201 -24T2008 107T1879 302ZM2597
614T2597 540T2550 413T2435 360Q2364 360 2314 413T2263 540T2313 667T2435 720Q2502 720 2549 667ZM2741 673T2741 540T2651 312T2435 216Q2305 216 2212 311T2119 540T2212 769T2435 864Q2561 864 2651 769ZM2885 733T2885 540T2753 210T2435 72Q2311 72 2205
135T2037 306T1975 540T2037 774T2205 945T2435 1008Q2620 1008 2752 871ZM2335 584T2335 540T2364 464T2435 432Q2472 432 2498 464T2525 540T2499 616T2435 648Q2394 648 2365 616ZM2191 644T2191 540T2262 362T2435 288Q2532 288 2600 362T2669 540T2601 718T2435
792Q2334 792 2263 718ZM2047 703T2047 540T2161 261T2435 144Q2591 144 2702 260T2813 540T2702 819T2435 936Q2275 936 2161 820ZM1903 686T1903 540T1974 270T2168 73T2435 0Q2576 0 2696 72T2887 269T2957 540T2887 810T2697 1007T2435 1080Q2291 1080 2169
1008T1975 811ZM57 992T57 1116T105 1353T234 1549T427 1679T661 1728Q781 1728 891 1680T1081 1549T1208 1354T1255 1116T1208 879T1081 683T891 553T661 504Q539 504 427 552T234 683T105 878ZM823 1190T823 1116T776 989T661 936Q590 936 540 989T489 1116T539
1243T661 1296Q728 1296 775 1243ZM967 1249T967 1116T877 888T661 792Q531 792 438 887T345 1116T438 1345T661 1440Q787 1440 877 1345ZM1111 1309T1111 1116T979 786T661 648Q537 648 431 711T263 882T201 1116T263 1350T431 1521T661 1584Q846 1584 978 1447ZM561
1160T561 1116T590 1040T661 1008Q698 1008 724 1040T751 1116T725 1192T661 1224Q620 1224 591 1192ZM417 1220T417 1116T488 938T661 864Q758 864 826 938T895 1116T827 1294T661 1368Q560 1368 489 1294ZM273 1279T273 1116T387 837T661 720Q817 720 928 836T1039
1116T928 1395T661 1512Q501 1512 387 1396ZM129 1262T129 1116T200 846T394 649T661 576Q802 576 922 648T1113 845T1183 1116T1113 1386T923 1583T661 1656Q517 1656 395 1584T201 1387ZM1873 1655H1947L1483 -144H1409L1873 1655ZM1723 1655H1798L1334 -144H1260L1723
1655ZM1573 1655H1648L1185 -144H1110L1573 1655Z" />
<glyph unicode="&amp;" glyph-name="ampersand" horiz-adv-x="2109" d="M1835 781V853H2052V781H1835ZM1835 643V715H2052V643H1835ZM1725 580V1656H1797V580Q1797 535 1812 520T1857 504H1991V432H1854Q1798 432 1762 469T1725 580ZM1581 580V1656H1653V580Q1653
474 1708 417T1848 360H1991V288H1851Q1739 288 1660 366T1581 580ZM1437 580V1656H1509V580Q1509 468 1557 384T1683 258T1851 216H1991V144H1853Q1743 144 1649 195T1496 347T1437 580ZM1293 580V1656H1365V580Q1365 465 1405 368T1512 207T1667 108T1850 72H1991V0H1851Q1742
0 1641 41T1463 155T1339 339T1293 580ZM573 577Q573 504 665 504H1221V432H665Q591 432 546 466T501 577Q501 714 665 714H1260V642H665Q620 642 597 629T573 577ZM1149 1224V1152H665Q625 1152 599 1133T573 1079Q573 996 665 996H1260V924H665Q591 924 546 960T501
1079Q501 1141 549 1182T665 1224H1149ZM1149 1368V1296H665Q572 1296 501 1231T429 1079Q429 971 497 912T665 852H1260V780H665Q644 780 634 781Q533 772 481 716T429 587Q429 479 497 420T665 360H1221V288H665Q537 288 447 369T357 587Q357 759 514 815Q442
852 400 920T357 1079Q357 1195 449 1281T665 1368H1149ZM1149 1512V1440H665Q513 1440 399 1333T285 1079Q285 927 396 823Q344 786 315 716T285 587Q285 425 397 321T665 216H1221V144H665Q545 144 442 200T276 359T213 587Q213 716 312 826Q213 939 213 1079Q213
1194 275 1294T441 1453T665 1512H1149ZM1149 1656V1584H665Q526 1584 405 1516T213 1331T141 1079Q141 941 230 822Q186 770 164 703T141 587Q141 479 183 383T297 219T464 112T665 72H1221V0H665Q544 0 436 41T247 156T117 341T69 587Q69 706 152 821Q69 932
69 1079Q69 1233 150 1366T369 1578T665 1656H1149ZM2052 924H1835V996H2052V924Z" />
<glyph unicode="&apos;" glyph-name="quotesingle" horiz-adv-x="528" d="M372 1007V1656H444V1007H372ZM228 1007V1656H300V1007H228ZM84 1007V1656H156V1007H84Z" />
<glyph unicode="(" glyph-name="parenleft" horiz-adv-x="841" d="M508 496V1089Q508 1193 562 1245T697 1297H774V1225H700Q645 1225 613 1196T580 1089V496Q580 418 612 389T700 360H774V288H697Q617 288 563 340T508 496ZM364 496V1089Q364 1251 461 1346T694
1441H774V1369H691Q578 1369 507 1298T436 1089V496Q436 359 507 288T691 216H774V144H694Q558 144 461 239T364 496ZM220 496V1089Q220 1238 288 1353T463 1526T696 1585H774V1513H694Q615 1513 543 1484T415 1403T326 1269T292 1089V496Q292 398 325 317T415
183T543 101T694 72H774V0H696Q571 0 464 58T288 232T220 496ZM76 496V1089Q76 1232 127 1354T265 1557T462 1683T694 1729H774V1657H693Q587 1657 489 1617T315 1506T194 1326T148 1089V496Q148 368 193 260T314 80T488 -32T693 -72H774V-144H694Q573 -144 462
-99T265 28T128 231T76 496Z" />
<glyph unicode=")" glyph-name="parenright" horiz-adv-x="837" d="M765 1089V496Q765 353 714 231T576 28T379 -98T147 -144H67V-72H148Q254 -72 352 -32T526 79T647 259T693 496V1089Q693 1217 648 1325T527 1505T353 1617T148 1657H67V1729H147Q268 1729 379
1684T576 1557T713 1354T765 1089ZM621 1089V496Q621 347 553 232T378 59T145 0H67V72H147Q226 72 298 101T426 182T515 316T549 496V1089Q549 1187 516 1268T426 1402T298 1484T147 1513H67V1585H145Q270 1585 377 1527T553 1353T621 1089ZM477 1089V496Q477 334
380 239T147 144H67V216H150Q263 216 334 287T405 496V1089Q405 1226 334 1297T150 1369H67V1441H147Q283 1441 380 1346T477 1089ZM333 1089V496Q333 392 279 340T144 288H67V360H141Q196 360 228 389T261 496V1089Q261 1167 229 1196T141 1225H67V1297H144Q224
1297 278 1245T333 1089Z" />
<glyph unicode="*" glyph-name="asterisk" horiz-adv-x="1361" d="M573 1015L205 1228L241 1290L501 1139V1440H573V1015ZM789 1015V1440H861V1139L1121 1290L1157 1228L789 1015ZM896 828L1265 1041L1301 979L1040 828L1301 677L1265 615L896 828ZM789 641L1157
428L1121 366L861 516V216H789V641ZM573 641V216H501V516L241 366L205 428L573 641ZM465 828L97 615L61 677L322 828L61 979L97 1041L465 828ZM132 553L607 827L132 1102L168 1165L645 889V1440H717V890L1193 1165L1229 1103L751 827L1229 552L1193 490L717 764V215H645V765L168
490L132 553Z" />
<glyph unicode="+" glyph-name="plus" horiz-adv-x="1231" d="M77 937V1009H374V1297H446V361H374V649H76V721H374V793H77V865H374V937H77ZM806 1297H878V1009H1156V937H878V865H1156V793H878V721H1156V649H878V361H806V1297ZM662 1297H734V361H662V1297ZM518
1297H590V361H518V1297Z" />
<glyph unicode="," glyph-name="comma" horiz-adv-x="518" d="M79 73V361H151V73H79ZM79 -143V-71Q121 -71 149 -62T192 -42T213 -8T222 29T223 73V361H295V73Q295 51 295 38T290 0T278 -42T255 -80T217 -113T159 -134T79 -143ZM79 -287V-215Q126 -215 164 -210T231
-196T281 -172T317 -143T341 -106T356 -66T363 -21T366 24T367 73V361H439V73Q439 41 439 23T435 -30T425 -85T407 -136T377 -185T332 -225T269 -259T186 -279T79 -287Z" />
<glyph unicode="-" glyph-name="hyphen" horiz-adv-x="970" d="M90 936V1008H882V936H90ZM90 792V864H882V792H90ZM90 648V720H882V648H90Z" />
<glyph unicode="." glyph-name="period" horiz-adv-x="523" d="M81 288V360H441V288H81ZM81 144V216H441V144H81ZM81 0V72H441V0H81Z" />
<glyph unicode="/" glyph-name="slash" horiz-adv-x="917" d="M801 1655H875L411 -194H337L801 1655ZM651 1655H726L262 -194H188L651 1655ZM501 1655H576L113 -194H38L501 1655Z" />
<glyph unicode="0" glyph-name="zero" horiz-adv-x="1727" d="M65 564T65 828T169 1298T455 1616T865 1728T1275 1616T1561 1298T1665 828T1561 358T1275 40T865 -72T455 40T169 358ZM1233 1049T1233 828T1134 484T865 360T597 483T497 828T596 1172T865 1296T1133
1173ZM1377 1108T1377 828T1236 382T865 216T495 382T353 828T494 1274T865 1440T1235 1274ZM1521 1053T1521 828T1437 431T1203 165T865 72T527 165T294 430T209 828T293 1225T527 1491T865 1584T1203 1491T1436 1226ZM569 1020T569 828T647 534T865 432T1082
534T1161 828T1083 1122T865 1224T648 1122ZM425 1079T425 828T545 433T865 288T1184 432T1305 828T1185 1223T865 1368T546 1224ZM281 1138T281 828T443 331T865 144T1286 331T1449 828T1287 1325T865 1512T444 1325ZM137 1011T137 828T192 490T343 227T574 60T865
0T1155 60T1386 227T1538 489T1593 828T1538 1166T1387 1429T1156 1596T865 1656T575 1596T344 1429T192 1167Z" />
<glyph unicode="1" glyph-name="one" horiz-adv-x="873" d="M57 1296V1368H783V0H711V1296H639V0H567V1296H495V0H423V1296H351V0H279V1296H57ZM57 1440V1512H783V1440H57ZM57 1584V1656H783V1584H57Z" />
<glyph unicode="2" glyph-name="two" horiz-adv-x="1194" d="M77 288V360H1053V288H77ZM77 144V216H1053V144H77ZM77 0V72H1053V0H77ZM188 400H104Q174 495 242 586T355 737T444 856T513 949T564 1017T600 1068T621 1104T634 1131T637 1152Q637 1198 599 1211T465
1224Q309 1224 153 1183L138 1252Q163 1263 264 1280T460 1298Q517 1298 559 1292T635 1270T688 1225T706 1152T662 1042T436 732Q288 535 188 400ZM351 400H267Q640 902 681 961Q765 1081 775 1132Q778 1146 778 1162Q778 1369 464 1369Q368 1369 269 1352T124
1318L110 1387Q281 1440 465 1440Q529 1440 583 1432T688 1403T773 1352T828 1272T849 1162Q849 1098 786 1001T409 479Q371 428 351 400ZM518 400H434Q775 866 848 980T921 1172Q921 1266 885 1334T783 1440T639 1495T464 1512Q279 1512 95 1456L80 1529Q277 1587
461 1587Q551 1587 628 1574T773 1531T889 1453T965 1335T993 1172Q993 1107 963 1040T837 834T518 400ZM691 400H607Q818 679 912 819T1036 1032T1065 1182Q1065 1280 1036 1359T953 1493T824 1585T660 1639T466 1656Q274 1656 66 1596L51 1667Q262 1728 464 1728Q614
1728 735 1696T947 1598T1087 1427T1137 1182Q1137 1094 1109 1016T985 795T691 400Z" />
<glyph unicode="3" glyph-name="three" horiz-adv-x="1254" d="M537 361Q305 361 136 409L150 476Q288 433 537 433Q685 433 685 511Q685 573 542 573H324V645H543Q635 645 696 613T757 511Q757 436 696 399T537 361ZM745 1071L676 1086Q685 1101 685 1136Q685
1224 537 1224Q288 1224 150 1181L136 1248Q305 1296 537 1296Q634 1296 695 1256T757 1136Q757 1093 745 1071ZM122 1316L108 1386Q295 1440 537 1440Q693 1440 797 1359T901 1136Q901 1079 879 1023L812 1050Q829 1088 829 1136Q829 1246 746 1307T537 1368Q305
1368 122 1316ZM1003 955L944 991Q973 1060 973 1136Q973 1307 848 1409T537 1512Q308 1512 94 1454L79 1526Q286 1584 537 1584Q677 1584 792 1530T976 1373T1045 1136Q1045 1039 1003 955ZM1110 851L1058 905Q1117 1012 1117 1136Q1117 1289 1039 1409T829 1592T537
1656Q292 1656 65 1596L50 1668Q268 1728 537 1728Q671 1728 790 1685T998 1566T1137 1378T1189 1136Q1189 979 1110 851ZM537 289Q663 289 746 347T829 511Q829 608 748 662T551 717H324V789H552Q697 789 799 714T901 511Q901 374 797 296T537 217Q295 217 108
271L122 341Q305 289 537 289ZM537 145Q723 145 848 244T973 511Q973 670 851 765T556 861H324V933H558Q690 933 802 878T979 725T1045 511Q1045 381 976 280T792 126T537 73Q286 73 79 131L94 203Q308 145 537 145ZM537 1Q697 1 828 63T1038 243T1117 511Q1117
621 1069 715T943 872T764 970T558 1005H324V1077H562Q685 1077 798 1036T998 923T1137 744T1189 511Q1189 341 1101 207T865 1T537 -71Q268 -71 50 -11L65 61Q292 1 537 1Z" />
<glyph unicode="4" glyph-name="four" horiz-adv-x="1274" d="M966 0H894V251H966V0ZM1110 0H1038V251H1110V0ZM966 683H894V970H966V683ZM1110 683H1038V970H1110V683ZM67 576V648H1219V576H67ZM67 432V504H1219V432H67ZM67 288V360H1219V288H67ZM514 1655L597
1656L149 684H65L514 1655ZM678 1655H758L312 684H228L678 1655ZM839 1655H921L479 684H395L839 1655ZM1003 1655L1086 1656L652 684H568L1003 1655Z" />
<glyph unicode="5" glyph-name="five" horiz-adv-x="1417" d="M1207 1368V1296H472V598H400V1296H328V598H256V1296H184V598H112V1368H1207ZM1207 1512V1440H112V1512H1207ZM1207 1656V1584H112V1656H1207ZM660 433Q858 433 858 521Q858 572 812 595T695 618Q585
618 520 592V664Q607 685 696 685Q760 685 810 670T895 617T930 521Q930 441 855 401T660 361Q475 361 378 421L436 465Q501 433 660 433ZM660 289Q808 289 905 350T1002 521Q1002 633 918 693T714 754Q622 754 520 731V807Q643 822 715 822Q865 822 969 742T1074
521Q1074 380 956 299T660 217Q406 217 266 331L323 375Q442 289 660 289ZM660 145Q867 145 1006 247T1146 521Q1146 637 1087 723T934 850T729 891Q618 891 520 874V947Q636 960 731 960Q864 960 975 904T1152 747T1218 521Q1218 388 1143 285T941 127T660 73T374
117T153 241L209 286Q289 218 406 182T660 145ZM660 1Q789 1 904 38T1105 143T1240 308T1290 521Q1290 635 1244 733T1122 895T950 996T751 1032Q699 1032 664 1030T585 1021T520 1012V1086Q618 1100 755 1100Q874 1100 984 1059T1178 944T1312 760T1362 521Q1362
391 1307 280T1156 92T933 -28T660 -71Q473 -71 312 -13T41 151L99 194Q198 102 344 52T660 1Z" />
<glyph unicode="6" glyph-name="six" horiz-adv-x="1601" d="M505 1035Q505 1165 594 1230T825 1296Q1010 1296 1107 1236L1049 1192Q984 1224 825 1224Q713 1224 645 1180T577 1035V601Q577 557 591 526T628 476T688 449T760 436T845 433Q1043 433 1043 521Q1043
572 1003 595T900 618Q756 618 632 562V634Q757 685 901 685Q993 685 1054 646T1115 521Q1115 441 1040 401T845 361Q786 361 738 367T646 390T571 433T523 502T505 601V1035ZM361 1035Q361 1166 424 1259T591 1396T825 1440Q1079 1440 1219 1326L1162 1282Q1043
1368 825 1368Q654 1368 544 1282T433 1035V601Q433 517 464 455T554 358T684 306T845 289Q993 289 1090 350T1187 521Q1187 633 1106 693T909 754Q762 754 632 701V777Q767 822 910 822Q1056 822 1157 742T1259 521Q1259 380 1141 299T845 217Q743 217 657 239T504
307T399 427T361 601V1035ZM217 1035Q217 1165 265 1270T396 1443T589 1547T825 1584Q979 1584 1111 1540T1332 1416L1276 1371Q1196 1439 1079 1475T825 1512Q714 1512 617 1481T447 1390T331 1240T289 1035V601Q289 488 332 400T452 256T628 173T845 145Q1052
145 1191 247T1331 521Q1331 637 1272 723T1119 850T914 891Q767 891 632 844V917Q773 960 916 960Q1049 960 1160 904T1337 747T1403 521Q1403 388 1328 285T1126 127T845 73Q714 73 602 107T403 205T267 371T217 601V1035ZM73 1035Q73 1193 132 1324T294 1543T533
1679T825 1728Q1012 1728 1173 1670T1444 1506L1386 1463Q1287 1555 1141 1605T825 1656Q684 1656 561 1615T345 1497T199 1301T145 1035V601Q145 487 181 390T281 221T432 100T624 26T845 1Q974 1 1089 38T1290 143T1425 308T1475 521Q1475 635 1427 733T1301
895T1122 996T916 1032Q764 1032 632 987V1061Q769 1100 920 1100Q1043 1100 1156 1059T1356 944T1495 760T1547 521Q1547 391 1492 280T1341 92T1118 -28T845 -71Q684 -71 545 -26T300 103T134 315T73 601V1035Z" />
<glyph unicode="7" glyph-name="seven" horiz-adv-x="1294" d="M1174 1656H1249L841 0H766L1174 1656ZM612 1368L595 1296H57V1368H612ZM646 1512L629 1440H57V1512H646ZM678 1656L664 1584H57V1656H678ZM729 1656H803L395 0H321L729 1656ZM877 1656H952L544 0H469L877
1656ZM1026 1656H1100L692 0H618L1026 1656Z" />
<glyph unicode="8" glyph-name="eight" horiz-adv-x="1656" d="M707 1080H974Q1095 1080 1206 1039T1403 924T1540 743T1591 510Q1591 340 1506 206T1277 0T959 -72H722Q588 -72 469 -30T262 88T122 273T70 514Q70 671 149 799L201 745Q142 638 142 514Q142 361
220 243T430 62T722 0H959Q1113 0 1240 62T1443 242T1519 510Q1519 620 1472 715T1348 873T1173 972T970 1008H706Q502 1008 502 1155Q502 1221 559 1258T702 1296H939Q1036 1296 1097 1256T1159 1136Q1159 1101 1147 1082L1080 1096Q1087 1106 1087 1136Q1087
1224 939 1224H702Q647 1224 611 1206T574 1155Q574 1110 609 1095T707 1080ZM954 576H687Q566 576 455 617T258 732T121 916T70 1155Q70 1319 155 1451T385 1655T702 1728H939Q1073 1728 1192 1685T1400 1566T1539 1378T1591 1136Q1591 979 1512 851L1460 905Q1519
1012 1519 1136Q1519 1289 1441 1409T1231 1592T939 1656H702Q587 1656 485 1619T307 1517T187 1358T142 1155Q142 1041 189 944T313 783T488 684T691 648H955Q1042 648 1100 614T1159 510Q1159 435 1103 398T959 360H722Q624 360 563 397T502 514Q502 556 513
576L582 561Q574 547 574 514Q574 467 613 450T722 432H959Q1087 432 1087 510Q1087 576 954 576ZM963 720H691Q493 720 354 845T214 1155Q214 1343 355 1463T702 1584H939Q1079 1584 1194 1530T1378 1373T1447 1136Q1447 1039 1405 955L1346 991Q1375 1060 1375
1136Q1375 1307 1250 1409T939 1512H702Q526 1512 406 1413T286 1155Q286 1070 319 1001T409 886T539 817T693 792H964Q1055 792 1131 759T1255 661T1303 510Q1303 373 1205 295T959 216H722Q565 216 462 294T358 514Q358 571 379 624L446 597Q430 561 430 514Q430
405 512 347T722 288H959Q1077 288 1154 346T1231 510Q1231 607 1153 663T963 720ZM968 864H697Q555 864 457 942T358 1155Q358 1284 457 1362T702 1440H939Q1095 1440 1199 1359T1303 1136Q1303 1079 1283 1033L1216 1060Q1231 1090 1231 1136Q1231 1246 1148
1307T939 1368H702Q586 1368 508 1310T430 1155Q430 1049 507 993T698 936H970Q1167 936 1307 812T1447 510Q1447 380 1381 279T1204 125T959 72H722Q582 72 467 124T283 279T214 514Q214 611 256 695L315 659Q286 590 286 514Q286 400 345 315T503 187T722 144H959Q1136
144 1255 243T1375 510Q1375 617 1318 699T1168 822T968 864Z" />
<glyph unicode="9" glyph-name="nine" horiz-adv-x="1602" d="M1099 622Q1099 492 1010 427T779 361Q594 361 497 421L555 465Q620 433 779 433Q891 433 959 477T1027 622V1056Q1027 1100 1013 1131T976 1181T916 1208T844 1221T759 1224Q561 1224 561 1136Q561
1085 612 1062T744 1039Q868 1039 972 1095V1023Q865 972 743 972Q674 972 619 987T527 1040T489 1136Q489 1216 564 1256T759 1296Q818 1296 866 1290T958 1267T1033 1224T1081 1155T1099 1056V622ZM1243 622Q1243 491 1180 398T1013 261T779 217Q525 217 385
331L442 375Q561 289 779 289Q950 289 1060 375T1171 622V1056Q1171 1140 1140 1202T1050 1299T920 1351T759 1368Q611 1368 514 1307T417 1136Q417 1061 463 1007T579 928T735 903Q860 903 972 956V880Q855 835 734 835Q572 835 459 915T345 1136Q345 1277 463
1358T759 1440Q861 1440 947 1418T1100 1350T1205 1230T1243 1056V622ZM1387 622Q1387 492 1339 387T1208 214T1015 110T779 73Q625 73 493 117T272 241L328 286Q408 218 525 182T779 145Q890 145 987 176T1157 267T1273 417T1315 622V1056Q1315 1169 1272 1257T1152
1401T976 1484T759 1512Q552 1512 413 1410T273 1136Q273 1048 310 977T412 861T557 791T730 766Q854 766 972 813V740Q849 697 728 697Q584 697 464 753T272 910T201 1136Q201 1269 276 1372T478 1530T759 1584Q890 1584 1002 1550T1201 1452T1337 1286T1387 1056V622ZM1531
622Q1531 464 1472 333T1310 114T1071 -22T779 -71Q592 -71 431 -13T160 151L218 194Q317 102 463 52T779 1Q920 1 1043 42T1259 160T1405 356T1459 622V1056Q1459 1170 1423 1267T1323 1436T1172 1557T980 1631T759 1656Q630 1656 515 1619T314 1514T179 1349T129
1136Q129 1044 162 962T253 820T387 715T550 648T728 625Q857 625 972 670V596Q852 557 724 557Q593 557 473 598T260 713T113 897T57 1136Q57 1266 112 1377T263 1565T486 1685T759 1728Q920 1728 1059 1683T1304 1554T1470 1342T1531 1056V622Z" />
<glyph unicode=":" glyph-name="colon" horiz-adv-x="538" d="M90 576V648H450V576H90ZM90 432V504H450V432H90ZM90 288V360H450V288H90ZM90 1152V1224H450V1152H90ZM90 1008V1080H450V1008H90ZM90 864V936H450V864H90Z" />
<glyph unicode=";" glyph-name="semicolon" horiz-adv-x="536" d="M90 360V648H162V360H90ZM90 144V216Q132 216 160 225T203 245T224 279T233 316T234 360V648H306V360Q306 338 306 325T301 287T289 245T266 207T228 174T170 153T90 144ZM90 0V72Q137 72 175
77T242 91T292 115T328 144T352 181T367 221T374 266T377 311T378 360V648H450V360Q450 328 450 310T446 257T436 202T418 151T388 102T343 62T280 28T197 8T90 0ZM90 1152V1224H450V1152H90ZM90 1008V1080H450V1008H90ZM90 864V936H450V864H90Z" />
<glyph unicode="&lt;" glyph-name="less" horiz-adv-x="1373" d="M1296 613V536L728 760L829 798L1296 613ZM1296 459V381L530 684L629 722L1296 459ZM1296 303V226L340 604L432 645L1296 303ZM1296 1428V1351L72 866V943L1296 1428ZM1296 1583V1505L72 1021V1098L1296
1583ZM1296 1273V1195L72 711V788L1296 1273ZM1296 1118V1041L169 595L1296 149V72L72 556V634L1296 1118Z" />
<glyph unicode="=" glyph-name="equal" horiz-adv-x="970" d="M90 577V649H882V577H90ZM90 433V505H882V433H90ZM90 289V361H882V289H90ZM90 1153V1225H882V1153H90ZM90 1009V1081H882V1009H90ZM90 865V937H882V865H90Z" />
<glyph unicode="&gt;" glyph-name="greater" horiz-adv-x="1373" d="M80 537V614L1207 1060L80 1506V1583L1304 1099V1021L80 537ZM80 382V460L1304 944V867L80 382ZM80 72V150L1304 634V557L80 72ZM80 227V304L1304 789V712L80 227ZM80 1352V1429L1036 1051L944
1010L80 1352ZM80 1196V1274L846 971L747 933L80 1196ZM80 1042V1119L648 895L547 857L80 1042Z" />
<glyph unicode="?" glyph-name="question" horiz-adv-x="1421" d="M660 1656Q491 1656 345 1606T99 1463L41 1506Q150 1611 311 1669T660 1728Q804 1728 932 1685T1156 1566T1306 1378T1362 1136Q1362 1007 1315 897T1187 714T1003 599T785 557Q773 557 741 558T679
559T630 557V625H781Q877 625 968 661T1131 761T1246 924T1290 1136Q1290 1251 1240 1349T1105 1514T905 1618T660 1656ZM660 1512Q524 1512 407 1476T209 1371L153 1416Q242 1496 374 1540T660 1584T940 1530T1142 1373T1218 1136Q1218 1011 1157 910T991 753T761
697Q697 697 630 690V763Q699 766 759 766Q863 766 949 807T1091 934T1146 1136Q1146 1307 1007 1409T660 1512ZM660 1368Q442 1368 323 1282L266 1326Q406 1440 660 1440Q838 1440 956 1359T1074 1136Q1074 996 979 916T745 835Q700 835 630 830V906Q687 903 744
903Q852 903 927 963T1002 1136Q1002 1246 905 1307T660 1368ZM660 1224Q501 1224 436 1192L378 1236Q475 1296 660 1296Q779 1296 854 1256T930 1136Q930 1051 872 1012T726 972Q660 972 630 973V1045Q664 1039 725 1039Q784 1039 821 1062T858 1136Q858 1224
660 1224ZM621 73V1H182V73H621ZM621 217V145H182V217H621ZM621 361V289H182V361H621ZM294 432H222V1039H294V432ZM438 432H366V1039H438V432ZM582 432H510V1039H582V432Z" />
<glyph unicode="@" glyph-name="at" horiz-adv-x="2204" d="M1335 227L1341 157Q1194 144 1027 144Q891 144 768 197T556 340T414 555T361 820Q361 962 419 1090T575 1310T810 1457T1097 1512Q1249 1512 1388 1460T1629 1319T1792 1108T1853 850V633Q1853 562
1810 523T1702 483Q1634 483 1589 517T1544 613V855Q1544 1026 1418 1125T1092 1224Q1001 1224 920 1191T783 1100T693 966T660 805Q660 631 782 522T1089 412L1215 415V349Q1149 346 1088 346Q955 346 843 400T659 560T588 805Q588 1013 732 1154T1092 1296Q1242
1296 1360 1243T1547 1089T1616 855V613Q1616 586 1640 571T1702 555Q1736 555 1758 576T1781 633V850Q1781 1011 1690 1146T1442 1361T1097 1440Q918 1440 766 1358T523 1132T433 820Q433 700 480 589T607 396T797 265T1027 216Q1235 216 1335 227ZM1351 86L1357
15Q1220 1 1027 1Q862 1 712 65T454 239T281 500T217 820Q217 990 286 1144T474 1411T755 1589T1097 1656Q1338 1656 1545 1548T1875 1254T1997 850V633Q1997 500 1912 420T1702 339Q1574 339 1487 416T1400 623V855Q1400 962 1316 1021T1092 1080Q975 1080 890
1001T804 805Q804 683 887 614T1106 544L1215 547V482Q1156 481 1100 481Q945 481 839 565T732 805Q732 948 835 1050T1092 1152Q1263 1152 1367 1074T1472 855V613Q1472 519 1537 465T1702 411Q1798 411 1861 470T1925 633V850Q1925 999 1860 1135T1684 1369T1420
1526T1097 1584Q934 1584 785 1524T527 1362T354 1118T289 820Q289 620 388 448T658 175T1027 73Q1198 73 1351 86ZM1368 -56L1376 -128Q1222 -143 1021 -143Q823 -143 645 -69T339 133T136 436T61 810Q61 1008 141 1190T359 1506T687 1720T1091 1800Q1230 1800
1364 1765T1614 1668T1828 1518T1994 1325T2102 1099T2141 850V633Q2141 433 2018 312T1706 191Q1514 191 1387 306T1259 613V855Q1259 894 1215 915T1096 936Q1039 936 994 895T948 805Q948 746 987 710T1080 674L1215 676V612Q1145 611 1094 611Q1004 611 940
663T876 805Q876 886 940 947T1096 1008Q1200 1008 1265 967T1331 855V613Q1331 452 1437 358T1706 263Q1865 263 1967 363T2069 633V850Q2069 1026 1993 1187T1787 1467T1475 1657T1091 1728Q900 1728 724 1656T418 1463T211 1170T133 810Q133 637 205 475T397
193T681 1T1021 -71Q1181 -71 1368 -56Z" />
<glyph unicode="A" glyph-name="A" horiz-adv-x="1918" d="M808 486L837 558H1083L1112 486H808ZM752 342L780 414H1139L1170 342H752ZM696 198L724 270H1196L1226 198H696ZM111 0H33L688 1656H766L1420 0H1343L727 1559L111 0ZM736 1388L777 1296L265 0H188L736
1388ZM816 1198L854 1099L421 0H343L816 1198ZM892 1000L930 899L575 0H498L892 1000ZM1885 0H1807L1153 1656H1230L1885 0ZM1075 1656L1730 0H1653L998 1656H1075ZM920 1656L1575 0H1497L843 1656H920Z" />
<glyph unicode="B" glyph-name="B" horiz-adv-x="1766" d="M1193 577Q1193 616 1170 629T1101 642H637V714H1101Q1265 714 1265 577Q1265 500 1220 466T1101 432H637V504H1101Q1193 504 1193 577ZM597 0H525V1224H1101Q1169 1224 1217 1183T1265 1079Q1265 997
1220 961T1101 924H637V996H1101Q1193 996 1193 1079Q1193 1113 1167 1132T1101 1152H597V0ZM637 852H1101Q1200 852 1268 911T1337 1079Q1337 1166 1266 1231T1101 1296H453V0H381V1368H1101Q1224 1368 1316 1282T1409 1079Q1409 988 1367 920T1252 815Q1409 759
1409 587Q1409 451 1319 370T1101 288H637V360H1101Q1200 360 1268 419T1337 587Q1337 660 1285 716T1132 781Q1122 780 1101 780H637V852ZM1553 1079Q1553 939 1454 826Q1553 716 1553 587Q1553 462 1491 360T1325 201T1101 144H637V216H1101Q1257 216 1369 320T1481
587Q1481 645 1452 715T1370 823Q1481 927 1481 1079Q1481 1225 1367 1332T1101 1440H309V0H237V1512H1101Q1220 1512 1324 1454T1491 1295T1553 1079ZM1536 822Q1625 941 1625 1079Q1625 1214 1554 1330T1361 1515T1101 1584H165V0H93V1656H1101Q1259 1656 1396
1578T1615 1367T1697 1079Q1697 932 1614 821Q1697 706 1697 587Q1697 453 1649 342T1520 156T1330 41T1101 0H637V72H1101Q1206 72 1302 111T1469 219T1582 383T1625 587Q1625 635 1603 702T1536 822Z" />
<glyph unicode="C" glyph-name="C" horiz-adv-x="1745" d="M1343 1090L1284 1051Q1230 1131 1144 1177T956 1224Q792 1224 676 1108T560 828T676 548T956 432Q1057 432 1143 479T1284 606L1342 564Q1278 470 1176 415T956 360Q861 360 775 397T625 497T525 646T488
828T525 1009T625 1159T774 1259T956 1296Q1075 1296 1177 1241T1343 1090ZM1462 1172L1402 1133Q1328 1241 1211 1304T956 1368Q809 1368 685 1296T489 1099T416 828T488 557T685 361T956 288Q1093 288 1211 352T1403 525L1462 484Q1378 360 1245 288T956 216Q790
216 649 298T426 521T344 828T426 1135T649 1358T956 1440Q1111 1440 1244 1368T1462 1172ZM1582 1252L1522 1213Q1428 1351 1279 1431T956 1512Q817 1512 690 1458T472 1313T326 1094T272 828T326 562T471 344T690 198T956 144Q1130 144 1279 225T1522 444L1580
401Q1476 249 1312 161T956 72Q751 72 577 173T302 449T200 828T301 1207T577 1482T956 1584Q1148 1584 1313 1495T1582 1252ZM1700 1334L1640 1295Q1526 1462 1346 1559T956 1656Q788 1656 635 1591T370 1414T194 1150T128 828T193 507T370 242T634 66T956 0Q1165
0 1346 98T1641 363L1699 319Q1575 139 1379 34T956 -72Q773 -72 607 -1T320 191T128 478T56 828T127 1177T319 1464T606 1656T956 1728Q1184 1728 1380 1622T1700 1334Z" />
<glyph unicode="D" glyph-name="D" horiz-adv-x="1815" d="M525 432V1224Q525 1224 1016 1224Q1135 1224 1220 1108T1306 828Q1306 664 1221 548T1016 432H525ZM597 504H1016Q1105 504 1168 599T1232 828Q1232 963 1169 1057T1016 1152H597V504ZM453 360H1016Q1165
360 1272 497T1380 828Q1380 955 1331 1063T1198 1233T1016 1296H453V360ZM381 288V1368H1016Q1133 1368 1234 1296T1394 1100T1454 828Q1454 682 1395 557T1234 360T1016 288H381ZM309 216H1016Q1153 216 1270 298T1458 521T1528 828Q1528 993 1458 1134T1270
1358T1016 1440H309V216ZM237 144V1512H1016Q1172 1512 1307 1421T1522 1171T1602 828T1522 485T1307 236T1016 144H237ZM165 72H1016Q1147 72 1269 132T1480 293T1622 534T1676 828T1623 1121T1480 1362T1269 1524T1016 1584H165V72ZM1016 0H93V1656H1016Q1211
1656 1380 1545T1649 1243T1750 828Q1750 660 1691 507T1532 242T1298 66T1016 0Z" />
<glyph unicode="E" glyph-name="E" horiz-adv-x="1447" d="M453 0H381V1656H453V0ZM309 0H237V1656H309V0ZM165 0H93V1656H165V0ZM597 360H1363V288H597V216H1363V144H597V72H1363V0H525V1656H1363V1584H597V1512H1363V1440H597V1368H1363V1296H597V1008H990V936H597V864H990V792H597V720H990V648H597V360Z"
/>
<glyph unicode="F" glyph-name="F" horiz-adv-x="1399" d="M597 0H525V1656H1322V1584H597V1512H1322V1440H597V1368H1322V1296H597V936H1288V864H597V792H1288V720H597V648H1288V576H597V0ZM453 0H381V1656H453V0ZM309 0H237V1656H309V0ZM165 0H93V1656H165V0Z" />
<glyph unicode="G" glyph-name="G" horiz-adv-x="1860" d="M1416 865H1488V0H1416V865ZM1704 865H1776V0H1704V865ZM1560 865H1632V0H1560V865ZM1344 865V0Q1154 -72 950 -72Q773 -72 611 -7T326 173T130 459T56 828Q56 1011 127 1177T319 1464T606 1656T956 1728Q1184
1728 1380 1622T1700 1334L1640 1295Q1526 1462 1346 1559T956 1656Q788 1656 635 1591T370 1414T194 1150T128 828Q128 647 195 490T375 227T637 61T947 0Q1116 0 1272 53V122Q1123 72 959 72Q840 72 728 105T520 204T353 360T241 571T200 828Q200 1033 301 1207T577
1482T956 1584Q1148 1584 1313 1495T1582 1252L1522 1213Q1428 1351 1279 1431T956 1512Q817 1512 690 1458T472 1313T326 1094T272 828Q272 703 308 594T409 403T560 263T747 174T956 144Q1122 144 1272 200V272Q1124 215 963 215Q841 215 730 256T533 374T395
568T344 828Q344 994 426 1135T649 1358T956 1440Q1111 1440 1244 1368T1462 1172L1402 1133Q1328 1241 1211 1304T956 1368Q809 1368 685 1296T489 1099T416 828Q416 726 445 638T525 486T644 377T792 310T956 287Q1125 287 1272 354V423Q1130 360 965 360Q870
360 786 389T635 474T528 621T488 828Q488 923 525 1009T625 1159T774 1259T956 1296Q1075 1296 1177 1241T1343 1090L1284 1051Q1230 1131 1144 1177T956 1224Q792 1224 676 1108T560 828Q560 727 593 650T683 526T811 456T963 432Q1129 432 1272 501V865H1344Z"
/>
<glyph unicode="H" glyph-name="H" horiz-adv-x="1846" d="M1677 1656H1749V0H1677V1656ZM93 1656H165V0H93V1656ZM1533 1656H1605V0H1533V1656ZM1389 1656H1461V0H1389V1656ZM1245 1656H1317V0H1245V649H597V0H525V1656H597V1009H1245V1656ZM381 1656H453V0H381V1656ZM237
1656H309V0H237V1656ZM1245 721V793H597V721H1245ZM1245 865V937H597V865H1245Z" />
<glyph unicode="I" glyph-name="I" horiz-adv-x="694" d="M525 1656H597V0H525V1656ZM381 1656H453V0H381V1656ZM237 1656H309V0H237V1656ZM93 1656H165V0H93V1656Z" />
<glyph unicode="J" glyph-name="J" horiz-adv-x="890" d="M170 360H47V432H170Q223 432 259 472T295 578V1656H367V578Q367 483 310 422T170 360ZM170 216H47V288H170Q282 288 360 373T439 578V1656H511V578Q511 428 412 322T170 216ZM170 72H47V144H170Q342 144
462 271T583 578V1656H655V578Q655 441 591 325T414 140T170 72ZM170 -72H47V0H170Q284 0 387 46T564 169T683 354T727 578V1656H799V578Q799 446 750 326T616 119T415 -20T170 -72Z" />
<glyph unicode="K" glyph-name="K" horiz-adv-x="1671" d="M597 0H525V1656H597V0ZM453 0H381V1656H453V0ZM309 0H237V1656H309V0ZM165 0H93V1656H165V0ZM1123 828L1546 1656H1626L1203 828L1626 0H1546L1123 828ZM962 828L1385 1656H1465L1042 828L1465 0H1385L962
828ZM801 828L1224 1656H1304L881 828L1304 0H1224L801 828ZM639 828L1063 1656H1143L719 828L1143 0H1063L639 828Z" />
<glyph unicode="L" glyph-name="L" horiz-adv-x="1239" d="M93 1656H165V0H93V1656ZM525 1656H597V360H1173V288H597V216H1173V144H597V72H1173V0H525V1656ZM381 1656H453V0H381V1656ZM237 1656H309V0H237V1656Z" />
<glyph unicode="M" glyph-name="M" horiz-adv-x="1886" d="M1285 604L1357 740V0H1285V604ZM1429 880L1501 1016V0H1429V880ZM1573 1152L1645 1289V0H1573V1152ZM1090 638L1049 713L1545 1656H1626L1090 638ZM1007 795L965 871L1381 1656H1463L1007 795ZM525 732L597
596V0H525V732ZM381 1006L453 870V0H381V1006ZM237 1280L309 1143V0H237V1280ZM819 432H738L165 1519V0H93V1656H174L819 432ZM982 432H900L256 1656H338L982 432ZM1717 1519L1144 432H1062L419 1656H500L1104 508L1707 1656H1789V0H1717V1519Z" />
<glyph unicode="N" glyph-name="N" horiz-adv-x="1798" d="M1269 797L1197 916V1656H1269V797ZM1413 561L1341 682V1656H1413V561ZM1557 322L1485 444V1656H1557V322ZM525 859L597 740V0H525V859ZM381 1095L453 974V0H381V1095ZM237 1334L309 1212V0H237V1334ZM262
1656H346L1364 0H1280L262 1656ZM432 1656H517L1534 0H1448L432 1656ZM601 1656H685L1629 117V1656H1701V0Q1701 0 1616 0L601 1656ZM165 1539V0H93V1656Q93 1656 179 1656L1194 0H1111L165 1539Z" />
<glyph unicode="O" glyph-name="O" horiz-adv-x="1912" d="M560 992T560 828T676 548T956 432T1236 548T1352 828T1236 1108T956 1224T676 1108ZM488 733T488 828T525 1009T625 1159T774 1259T956 1296T1137 1259T1287 1159T1387 1010T1424 828T1387 647T1287
497T1138 397T956 360T775 397T625 497T525 646ZM416 975T416 828T488 557T685 361T956 288T1227 360T1423 557T1496 828T1424 1099T1227 1295T956 1368T685 1296T489 1099ZM344 662T344 828T426 1135T649 1358T956 1440T1263 1358T1486 1135T1568 828T1486 521T1263
298T956 216T649 298T426 521ZM272 967T272 828T326 562T471 344T690 198T956 144T1222 198T1440 343T1586 562T1640 828T1586 1094T1441 1312T1222 1458T956 1512T690 1458T472 1313T326 1094ZM200 623T200 828T301 1207T577 1482T956 1584T1335 1483T1610 1207T1712
828T1611 449T1335 174T956 72T577 173T302 449ZM128 996T128 828T193 507T370 242T634 66T956 0T1277 65T1542 242T1718 506T1784 828T1719 1149T1542 1414T1278 1590T956 1656T635 1591T370 1414T194 1150ZM56 645T56 828T127 1177T319 1464T606 1656T956 1728T1305
1657T1592 1465T1784 1178T1856 828T1785 479T1593 192T1306 0T956 -72T607 -1T320 191T128 478Z" />
<glyph unicode="P" glyph-name="P" horiz-adv-x="1742" d="M653 784H1071Q1174 784 1245 853T1317 1050Q1317 1145 1242 1220T1071 1296H453V0H381V1368H1071Q1197 1368 1293 1271T1389 1050Q1389 897 1296 805T1071 712H653V784ZM653 640H1071Q1175 640 1263
690T1406 836T1461 1050Q1461 1204 1344 1322T1071 1440H309V0H237V1512H1071Q1192 1512 1299 1448T1469 1277T1533 1050Q1533 914 1469 803T1300 630T1071 568H653V640ZM653 496H1071Q1178 496 1276 538T1446 653T1562 829T1605 1050Q1605 1190 1532 1313T1336
1510T1071 1584H165V0H93V1656H1071Q1231 1656 1371 1573T1594 1349T1677 1050Q1677 908 1628 789T1496 590T1303 468T1071 424H653V496ZM597 0H525V1224H1071Q1142 1224 1193 1172T1245 1050Q1245 856 1071 856H653V928H1071Q1119 928 1146 955T1173 1050Q1173
1094 1144 1123T1071 1152H597V0Z" />
<glyph unicode="Q" glyph-name="Q" horiz-adv-x="1921" d="M1049 489L975 471L895 600L956 638L1049 489ZM1298 -48L1365 -19L1473 -194L1412 -233L1298 -48ZM1177 556L1117 518L1019 675L1080 713L1177 556ZM1429 14L1490 52L1594 -117L1533 -156L1429 14ZM1276
670L1232 604L1142 749L1202 790L1276 670ZM1549 93L1604 142L1716 -39L1655 -78L1549 93ZM560 992T560 828T676 548T956 432T1236 548T1352 828T1236 1108T956 1224T676 1108ZM488 733T488 828T525 1009T625 1159T774 1259T956 1296T1137 1259T1287 1159T1387
1010T1424 828T1387 647T1287 497T1138 397T956 360T775 397T625 497T525 646ZM416 975T416 828T488 557T685 361T956 288T1227 360T1423 557T1496 828T1424 1099T1227 1295T956 1368T685 1296T489 1099ZM344 662T344 828T426 1135T649 1358T956 1440T1263 1358T1486
1135T1568 828T1486 521T1263 298T956 216T649 298T426 521ZM272 967T272 828T326 562T471 344T690 198T956 144T1222 198T1440 343T1586 562T1640 828T1586 1094T1441 1312T1222 1458T956 1512T690 1458T472 1313T326 1094ZM200 623T200 828T301 1207T577 1482T956
1584T1335 1483T1610 1207T1712 828T1611 449T1335 174T956 72T577 173T302 449ZM128 996T128 828T193 507T370 242T634 66T956 0T1277 65T1542 242T1718 506T1784 828T1719 1149T1542 1414T1278 1590T956 1656T635 1591T370 1414T194 1150ZM56 645T56 828T127
1177T319 1464T606 1656T956 1728T1305 1657T1592 1465T1784 1178T1856 828T1785 479T1593 192T1306 0T956 -72T607 -1T320 191T128 478Z" />
<glyph unicode="R" glyph-name="R" horiz-adv-x="1728" d="M637 824H1071Q1170 824 1238 888T1307 1070Q1307 1157 1235 1226T1071 1296H453V0H381V1368H1071Q1193 1368 1286 1278T1379 1070Q1379 926 1289 839T1071 752H637V824ZM637 680H1071Q1227 680 1339
789T1451 1070Q1451 1217 1337 1328T1071 1440H309V0H237V1512H1071Q1190 1512 1294 1451T1461 1288T1523 1070Q1523 873 1390 741T1071 608H637V680ZM637 536H1071Q1211 536 1331 605T1523 797T1595 1070Q1595 1205 1524 1323T1331 1513T1071 1584H165V0H93V1656H1071Q1228
1656 1366 1576T1585 1360T1667 1070Q1667 892 1591 757T1383 546L1569 0H1493L1315 512Q1275 496 1254 490L1421 0H1345L1182 473Q1173 471 1118 466L1273 0H1197L1044 464H979L1125 0H1049L902 464H637V536ZM597 0H525V1224H1071Q1138 1224 1186 1179T1235 1070Q1235
896 1071 896H637V968H1071Q1114 968 1138 990T1163 1070Q1163 1105 1137 1128T1071 1152H597V0Z" />
<glyph unicode="S" glyph-name="S" horiz-adv-x="1397" d="M762 1008H641Q564 1008 530 1047T496 1152Q496 1296 711 1296Q913 1296 1015 1236L957 1192Q887 1224 711 1224Q625 1224 596 1205T566 1152T582 1099T641 1080H765Q900 1080 1008 1034T1187 909T1294
726T1331 504Q1331 408 1304 322T1223 164T1092 40T910 -42T681 -72Q488 -72 320 -14T39 150L97 193Q199 101 352 51T681 0Q818 0 928 39T1110 148T1220 308T1259 504Q1259 643 1203 755T1033 938T762 1008ZM641 936H755Q958 936 1072 812T1187 504Q1187 317 1054
195T681 72Q521 72 382 116T151 240L207 285Q289 218 413 181T681 144Q892 144 1003 245T1115 504Q1115 660 1022 762T754 864H641Q495 864 422 944T349 1152T439 1360T711 1440Q838 1440 947 1411T1127 1326L1070 1282Q945 1368 711 1368Q560 1368 491 1309T421
1152Q421 1054 472 995T641 936ZM641 792H751Q897 792 970 711T1043 504Q1043 376 953 296T681 216Q554 216 445 245T264 330L321 374Q446 288 681 288Q832 288 901 347T971 504T919 660T750 720H641Q436 720 321 842T205 1152T338 1461T711 1584Q871 1584 1009
1540T1240 1416L1184 1371Q1102 1438 978 1475T711 1512Q500 1512 389 1411T277 1152Q277 995 371 894T641 792ZM641 648H751Q828 648 862 608T896 504Q896 360 681 360Q478 360 376 420L434 464Q504 432 681 432Q767 432 796 451T826 504Q826 537 810 556T749
576H641Q503 576 392 621T209 745T99 928T61 1152Q61 1248 88 1334T169 1492T300 1616T482 1698T711 1728Q904 1728 1072 1670T1352 1506L1294 1463Q1192 1555 1039 1605T711 1656Q574 1656 464 1617T282 1508T172 1348T133 1152Q133 1011 190 898T364 717T641
648Z" />
<glyph unicode="T" glyph-name="T" horiz-adv-x="1211" d="M61 1584V1656H1141V1584H61ZM61 1440V1512H1141V1440H61ZM61 1296V1368H1141V1296H853V0H781V1296H709V0H637V1296H565V0H493V1296H421V0H349V1296H61Z" />
<glyph unicode="U" glyph-name="U" horiz-adv-x="1854" d="M1259 728V1656H1331V728Q1331 576 1211 468T923 360T635 468T515 728V1656H587V728Q587 606 685 519T923 432T1160 519T1259 728ZM1403 728V1656H1475V728Q1475 624 1431 530T1313 366T1137 257T923
216T709 256T533 366T415 529T371 728V1656H443V728Q443 609 507 508T682 347T923 288T1163 347T1338 507T1403 728ZM1547 728V1656H1619V728Q1619 595 1564 474T1415 264T1193 124T923 72T653 124T431 264T283 473T227 728V1656H299V728Q299 570 383 436T610 223T923
144T1235 222T1463 435T1547 728ZM1691 728V1656H1763V728Q1763 512 1650 328T1344 36T923 -72T503 35T196 327T83 728V1656H155V728Q155 581 216 446T380 214T625 58T923 0T1220 58T1466 213T1630 446T1691 728Z" />
<glyph unicode="V" glyph-name="V" horiz-adv-x="1927" d="M37 1656H115L731 97L1347 1656H1424L770 0H692L37 1656ZM781 360L740 268L192 1656H269L781 360ZM858 557L820 458L347 1656H425L858 557ZM934 757L896 656L502 1656H579L934 757ZM1811 1656H1889L1234
0H1157L1811 1656ZM1657 1656H1734L1079 0H1002L1657 1656ZM1501 1656H1579L924 0H847L1501 1656Z" />
<glyph unicode="W" glyph-name="W" horiz-adv-x="2379" d="M567 509L533 367L191 1656H265L567 509ZM642 786L605 648L340 1656H413L642 786ZM717 1073L679 933L488 1656H563L717 1073ZM1002 0H927L1365 1654L1364 1656H1440V1654L1635 982L1814 1656H1889L1450
0H1375L1179 671L1002 0ZM852 0H778L1216 1656H1290L852 0ZM703 0H629L1068 1656H1141L703 0ZM1898 0H1823L2261 1656H2336L1898 0ZM1748 0H1674L2112 1656H2186L1748 0ZM1599 0H1525L1964 1656H2037L1599 0ZM517 142L918 1656H993L554 0H479L41 1656H116L517 142ZM1217
812L1411 136L1449 279L1254 953L1217 812ZM1291 1094L1486 420L1524 561L1329 1236L1291 1094ZM1365 1374L1561 700L1598 842L1404 1518L1365 1374Z" />
<glyph unicode="X" glyph-name="X" horiz-adv-x="1795" d="M595 895L552 827L31 1656H116L595 895ZM950 354L992 422L1258 0H1173L950 354ZM680 1029L637 962L201 1656H285L680 1029ZM1035 489L1077 557L1428 0H1343L1035 489ZM765 1165L723 1098L371 1656H456L765
1165ZM1121 625L1163 693L1599 0H1514L1121 625ZM850 1300L808 1232L541 1656H626L850 1300ZM1205 760L1247 828L1769 0H1684L1205 760ZM1634 1656H1719L677 0H592L1634 1656ZM1465 1656H1549L507 0H422L1465 1656ZM1294 1656H1379L336 0H251L1294 1656ZM1124 1656H1209L166
0H81L1124 1656Z" />
<glyph unicode="Y" glyph-name="Y" horiz-adv-x="1616" d="M647 833L611 754L179 1656H251L647 833ZM719 991L682 912L323 1656H395L719 991ZM791 1148L755 1069L467 1656H539L791 1148ZM700 558L1221 1656H1293L772 558V0H700V558ZM844 558L1365 1656H1437L916
558V0H844V558ZM988 558L1509 1656H1581L1060 558V0H988V558ZM592 634L1077 1656H1149L628 558V0H556V558L35 1656H107L592 634Z" />
<glyph unicode="Z" glyph-name="Z" horiz-adv-x="1749" d="M876 432L995 504H1665V432H876ZM640 288L761 360H1665V288H640ZM401 144L523 216H1665V144H401ZM868 1224L749 1152H79V1224H868ZM1104 1368L983 1296H79V1368H1104ZM1343 1512L1221 1440H79V1512H1343ZM1665
1487V1403L79 337V421L1665 1487ZM1665 1317V1232L79 167V253L1665 1317ZM1665 1148V1064L186 72H1665V0H79Q79 0 79 85L1665 1148ZM1558 1584H79V1656H1665Q1665 1656 1665 1570L79 507V590L1558 1584Z" />
<glyph unicode="[" glyph-name="bracketleft" horiz-adv-x="657" d="M382 144V1440H598V1368H454V216H598V144H382ZM238 1584H598V1512H310V72H598V1H238V1584ZM94 1728H598V1656H166V-72H598V-144H94V1728Z" />
<glyph unicode="\" glyph-name="backslash" horiz-adv-x="918" d="M342 1655H417L880 -194H805L342 1655ZM192 1655H267L730 -194H656L192 1655ZM43 1655H117L581 -194H507L43 1655Z" />
<glyph unicode="]" glyph-name="bracketright" horiz-adv-x="655" d="M59 1728H563V-144H59V-72H491V1656H59V1728ZM59 1584H419V1H59V72H347V1512H59V1584ZM275 1440V144H59V216H203V1368H59V1440H275Z" />
<glyph unicode="^" glyph-name="asciicircum" horiz-adv-x="973" d="M138 649H61L372 1440H450L760 649H682L410 1343L138 649ZM914 649H837L527 1440H604L914 649ZM293 649H215L420 1172L461 1080L293 649Z" />
<glyph unicode="_" glyph-name="underscore" horiz-adv-x="1048" d="M91 -72V0H955V-72H91ZM91 -216V-144H955V-216H91ZM91 -360V-288H955V-360H91Z" />
<glyph unicode="`" glyph-name="grave" horiz-adv-x="968" d="M840 1561L897 1613L230 1939L174 1887L840 1561ZM726 1457L783 1509L117 1835L59 1782L726 1457Z" />
<glyph unicode="a" glyph-name="a" horiz-adv-x="1704" d="M1115 710Q1115 838 1036 908T827 978Q717 978 638 902T559 720Q559 660 575 613T618 534T684 482T763 452T852 443Q966 443 1060 499V427Q963 376 851 376Q779 376 716 395T600 454T518 562T487 720Q487
858 584 954T827 1050Q988 1050 1087 960T1187 710V0H1115V710ZM1331 710V0H1259V710Q1259 899 1138 1010T827 1122Q651 1122 533 1005T415 720Q415 618 450 537T547 407T683 333T843 307Q957 307 1060 360V284Q952 239 842 239Q743 239 654 269T495 358T384 510T343
720Q343 917 482 1055T827 1194Q971 1194 1085 1136T1265 966T1331 710ZM1475 710V0H1403V710Q1403 875 1328 1002T1121 1198T827 1266Q672 1266 544 1193T344 994T271 720Q271 592 318 487T444 313T625 208T838 170Q951 170 1060 217V144Q946 101 836 101Q663
101 518 179T286 400T199 720Q199 846 247 960T379 1157T579 1289T827 1338Q1010 1338 1157 1260T1390 1038T1475 710ZM1619 710V0H1547V710Q1547 914 1452 1074T1193 1322T827 1410Q633 1410 472 1317T219 1066T127 720Q127 597 166 487T274 294T432 151T625 60T836
29Q954 29 1060 74V0Q949 -39 832 -39Q711 -39 597 -5T385 95T213 252T97 464T55 720Q55 875 113 1015T273 1258T519 1421T827 1482Q993 1482 1139 1426T1391 1271T1558 1026T1619 710Z" />
<glyph unicode="b" glyph-name="b" horiz-adv-x="1476" d="M1221 728L1219 729Q1332 839 1332 997Q1332 1147 1221 1257T957 1368H165V0H93V1440H957Q1075 1440 1178 1380T1343 1217T1404 997Q1404 837 1318 722Q1404 603 1404 460Q1404 323 1342 219T1180 61T957
8H502V80H957Q1111 80 1221 189T1332 460Q1332 534 1300 606T1220 727Q1220 728 1221 728ZM957 368H502V296H957Q1023 296 1069 340T1116 460Q1116 525 1068 574T957 624H501V552H957Q991 552 1017 524T1044 460Q1044 416 1019 392T957 368ZM957 224H502V152H957Q1081
152 1170 240T1260 460Q1260 543 1216 616T1098 730Q1171 768 1215 838T1260 997Q1260 1117 1170 1206T957 1296H237V0H309V1224H957Q1049 1224 1118 1156T1188 997Q1188 897 1120 833T957 768H737H502V696H737H957Q1049 696 1118 625T1188 460Q1188 356 1120 290T957
224ZM957 912H502V840H957Q1024 840 1070 882T1116 997Q1116 1058 1068 1105T957 1152H381V0H453V1080H957Q991 1080 1017 1055T1044 997Q1044 956 1019 934T957 912Z" />
<glyph unicode="c" glyph-name="c" horiz-adv-x="1509" d="M1129 944L1071 900Q984 1008 847 1008Q728 1008 644 924T559 720T643 517T847 432Q914 432 972 461T1072 541L1128 494Q1078 431 1004 396T847 360Q698 360 593 465T487 720T592 974T847 1080Q931 1080
1005 1044T1129 944ZM1241 1034L1184 990Q1124 1066 1036 1109T847 1152Q668 1152 542 1025T415 720T541 415T847 288Q947 288 1036 331T1185 451L1240 405Q1170 317 1067 267T847 216Q710 216 594 283T411 467T343 720T410 973T594 1156T847 1224Q964 1224 1067
1174T1241 1034ZM1354 1124L1298 1079Q1217 1180 1099 1238T847 1296Q730 1296 624 1251T440 1128T317 944T271 720T316 497T439 313T623 190T847 144Q981 144 1099 202T1298 361L1352 314Q1261 201 1129 137T847 72Q715 72 595 123T389 261T251 468T199 720T250
972T388 1178T595 1316T847 1368Q998 1368 1130 1303T1354 1124ZM1466 1214L1408 1171Q1307 1296 1161 1368T847 1440Q701 1440 568 1383T338 1230T184 1000T127 720T184 441T337 211T567 57T847 0Q1014 0 1160 72T1408 269L1465 225Q1354 87 1193 8T847 -72Q686
-72 540 -9T287 160T118 412T55 720T118 1027T287 1280T539 1449T847 1512Q1031 1512 1193 1433T1466 1214Z" />
<glyph unicode="d" glyph-name="d" horiz-adv-x="1706" d="M525 432V1008Q525 1008 924 1008Q1035 1008 1114 924T1194 722Q1194 600 1115 516T924 432H525ZM597 504H924Q1005 504 1062 567T1120 722Q1120 810 1063 873T924 936H597V504ZM453 360H924Q1066 360
1167 465T1268 722Q1268 870 1167 975T924 1080H453V360ZM381 288V1152H924Q1095 1152 1218 1026T1342 722Q1342 541 1219 415T924 288H381ZM309 216H924Q1056 216 1169 283T1349 467T1416 722Q1416 857 1349 973T1169 1156T924 1224H309V216ZM237 144V1296H924Q1075
1296 1205 1219T1413 1010T1490 722Q1490 565 1413 432T1206 221T924 144H237ZM165 72H924Q1095 72 1242 158T1476 395T1564 722Q1564 896 1477 1045T1242 1281T924 1368H165V72ZM924 0H93V1440H924Q1114 1440 1278 1344T1540 1082T1638 722Q1638 575 1581 441T1427
211T1198 57T924 0Z" />
<glyph unicode="e" glyph-name="e" horiz-adv-x="1366" d="M453 0H381V1440H453V0ZM309 0H237V1440H309V0ZM165 0H93V1440H165V0ZM597 360H1286V288H597V216H1286V144H597V72H1286V0H525V1440H1286V1368H597V1296H1286V1224H597V1152H1286V1080H597V901H1246V829H597V757H1246V685H597V613H1246V541H597V360Z"
/>
<glyph unicode="f" glyph-name="f" horiz-adv-x="1281" d="M597 0H525V1440H1212V1368H597V1296H1212V1224H597V1152H1212V1080H597V860H1164V788H597V716H1164V644H597V572H1164V500H597V0ZM453 0H381V1440H453V0ZM309 0H237V1440H309V0ZM165 0H93V1440H165V0Z" />
<glyph unicode="g" glyph-name="g" horiz-adv-x="1694" d="M1106 730H1178V0Q1018 -72 847 -72Q686 -72 540 -9T287 160T118 412T55 720T118 1027T287 1280T539 1449T847 1512Q1031 1512 1193 1433T1466 1214L1408 1171Q1307 1296 1161 1368T847 1440Q701 1440
568 1383T338 1230T184 1000T127 720T184 441T337 211T567 57T847 0Q982 0 1106 48V122Q981 72 847 72Q715 72 595 123T389 261T251 468T199 720T250 972T388 1178T595 1316T847 1368Q998 1368 1130 1303T1354 1124L1298 1079Q1217 1180 1099 1238T847 1296Q730
1296 624 1251T440 1128T317 944T271 720T316 497T439 313T623 190T847 144Q985 144 1106 200V274Q985 216 847 216Q710 216 594 283T411 467T343 720T410 973T594 1156T847 1224Q964 1224 1067 1174T1241 1034L1184 990Q1124 1066 1036 1109T847 1152Q668 1152
542 1025T415 720T541 415T847 288Q987 288 1106 356V429Q989 360 847 360Q698 360 593 465T487 720T592 974T847 1080Q931 1080 1005 1044T1129 944L1071 900Q984 1008 847 1008Q728 1008 644 924T559 720T643 517T847 432Q1000 432 1106 517V730ZM1538 730H1610V0H1538V730ZM1394
730H1466V0H1394V730ZM1250 730H1322V0H1250V730Z" />
<glyph unicode="h" glyph-name="h" horiz-adv-x="1701" d="M1534 1440H1606V0H1534V1440ZM93 1440H165V0H93V1440ZM1390 1440H1462V0H1390V1440ZM1246 1440H1318V0H1246V1440ZM1102 1440H1174V0H1102V576H597V0H525V1440H597V936H1102V1440ZM381 1440H453V0H381V1440ZM237
1440H309V0H237V1440ZM1102 648V720H597V648H1102ZM1102 792V864H597V792H1102Z" />
<glyph unicode="i" glyph-name="i" horiz-adv-x="692" d="M525 1440H597V0H525V1440ZM381 1440H453V0H381V1440ZM237 1440H309V0H237V1440ZM93 1440H165V0H93V1440Z" />
<glyph unicode="j" glyph-name="j" horiz-adv-x="806" d="M47 217V289Q117 289 164 329T212 435V1440H284V435Q284 340 215 279T47 217ZM47 73V145Q177 145 266 229T356 435V1440H428V435Q428 285 318 179T47 73ZM47 -71V1Q237 1 368 128T500 435V1440H572V435Q572
298 503 182T312 -3T47 -71ZM47 -215V-143Q170 -143 280 -97T470 26T597 211T644 435V1440H716V435Q716 303 664 183T522 -24T308 -163T47 -215Z" />
<glyph unicode="k" glyph-name="k" horiz-adv-x="1642" d="M1606 1440H1526L1125 714L1520 0H1600L1205 714L1606 1440ZM1445 1440H1365L964 714L1359 0H1439L1044 714L1445 1440ZM1284 1440H1204L803 714L1198 0H1278L883 714L1284 1440ZM1123 1440H1043L641
714L1037 0H1117L721 714L1123 1440ZM525 1440H597V0H525V1440ZM381 1440H453V0H381V1440ZM237 1440H309V0H237V1440ZM93 1440H165V0H93V1440Z" />
<glyph unicode="l" glyph-name="l" horiz-adv-x="1194" d="M93 1440H165V0H93V1440ZM525 1440H597V360H1128V288H597V216H1128V144H597V72H1128V0H525V1440ZM381 1440H453V0H381V1440ZM237 1440H309V0H237V1440Z" />
<glyph unicode="m" glyph-name="m" horiz-adv-x="2392" d="M1013 900V0H941V900Q941 929 932 949T907 981T868 998T820 1006T763 1008T706 1007T659 999T619 981T595 950T585 900V0H513V900Q513 1080 763 1080T1013 900ZM1157 900V0H1085V900Q1085 1027 996 1089T763
1152T531 1090T441 900V0H369V900Q369 1005 423 1080T564 1189T763 1224T961 1190T1103 1080T1157 900ZM1301 900V0H1229V900Q1229 994 1193 1070T1092 1195T944 1270T763 1296T582 1270T434 1195T334 1070T297 900V0H225V900Q225 1009 267 1098T383 1245T554 1336T763
1368T972 1336T1143 1246T1258 1098T1301 900ZM1445 0H1373V900Q1373 1009 1325 1109T1194 1281T999 1397T763 1440Q594 1440 457 1377T236 1189T153 900V0H81V900Q81 1038 135 1154T281 1348T498 1469T763 1512Q1011 1512 1193 1387Q1375 1512 1623 1512Q1763
1512 1887 1469T2104 1348T2251 1154T2305 900V0H2233V900Q2233 1063 2150 1187T1930 1376T1623 1440Q1411 1440 1253 1340Q1276 1320 1304 1288Q1441 1368 1623 1368Q1734 1368 1832 1336T2003 1246T2118 1098T2161 900V0H2089V900Q2089 994 2053 1070T1952 1195T1804
1270T1623 1296Q1464 1296 1348 1231Q1366 1203 1384 1169Q1482 1224 1623 1224Q1734 1224 1821 1190T1963 1080T2017 900V0H1945V900Q1945 1027 1856 1089T1623 1152Q1493 1152 1412 1104Q1425 1066 1432 1032Q1495 1080 1623 1080Q1873 1080 1873 900V0H1801V900Q1801
929 1792 949T1767 981T1728 998T1680 1006T1623 1008T1566 1007T1519 999T1479 981T1455 950T1445 900V0Z" />
<glyph unicode="n" glyph-name="n" horiz-adv-x="1612" d="M1229 581L1157 712V1440H1229V581ZM1373 332L1301 454V1440H1373V332ZM381 859L453 728V0H381V859ZM237 1118L309 986V0H237V1118ZM262 1440H346L1180 0H1096L262 1440ZM432 1440H517L1350 0H1264L432
1440ZM601 1440H685L1445 125V1440H1517V0H1432L601 1440ZM165 1316V0H93V1440H179L1010 0H927L165 1316Z" />
<glyph unicode="o" glyph-name="o" horiz-adv-x="1707" d="M559 839T559 720T643 517T847 432T1050 516T1135 720T1051 923T847 1008T644 924ZM487 571T487 720T592 974T847 1080T1101 975T1207 720T1102 466T847 360T593 465ZM415 898T415 720T541 415T847 288T1152
415T1279 720T1153 1025T847 1152T542 1025ZM343 583T343 720T410 973T594 1156T847 1224T1100 1157T1283 973T1351 720T1284 467T1100 284T847 216T594 283T411 467ZM271 837T271 720T316 497T439 313T623 190T847 144T1070 189T1254 312T1377 496T1423 720T1378
943T1255 1127T1071 1250T847 1296T624 1251T440 1128T317 944ZM199 588T199 720T250 972T388 1178T595 1316T847 1368T1099 1317T1305 1179T1443 972T1495 720T1444 468T1306 262T1099 124T847 72T595 123T389 261T251 468ZM127 866T127 720T184 441T337 211T567
57T847 0T1126 57T1356 210T1510 440T1567 720T1510 999T1357 1229T1127 1383T847 1440T568 1383T338 1230T184 1000ZM55 559T55 720T118 1027T287 1280T539 1449T847 1512T1154 1449T1407 1280T1576 1028T1639 720T1576 413T1407 160T1155 -9T847 -72T540 -9T287
160T118 412Z" />
<glyph unicode="p" glyph-name="p" horiz-adv-x="1601" d="M652 678H957Q1047 678 1110 732T1173 884Q1173 960 1107 1020T957 1080H453V0H381V1152H957Q1072 1152 1158 1071T1245 884Q1245 757 1161 682T957 606H652V678ZM652 534H957Q1105 534 1211 632T1317
884Q1317 1019 1209 1121T957 1224H309V0H237V1296H957Q1131 1296 1260 1173T1389 884Q1389 704 1262 583T957 462H652V534ZM652 390H957Q1092 390 1207 454T1392 632T1461 884Q1461 1011 1393 1123T1208 1301T957 1368H165V0H93V1440H957Q1071 1440 1177 1395T1362
1275T1486 1097T1533 884Q1533 755 1487 647T1362 468T1179 357T957 318H652V390ZM597 0H525V1008H957Q1016 1008 1058 972T1101 884Q1101 750 957 750H652V822H957Q1029 822 1029 884Q1029 906 1008 921T957 936H597V0Z" />
<glyph unicode="q" glyph-name="q" horiz-adv-x="1614" d="M701 488H975V416H701Q552 416 448 519T343 797Q343 933 452 1042T701 1152H1231V-216H1159V1080H701Q591 1080 503 992T415 797Q415 646 497 567T701 488ZM701 344H975V272H701Q602 272 511 311T350
418T240 585T199 797Q199 893 240 984T349 1144T510 1254T701 1296H1375V-216H1303V1224H701Q590 1224 490 1164T331 1004T271 797Q271 696 306 610T401 467T538 377T701 344ZM701 200H975V128H701Q597 128 501 157T324 243T183 379T89 566T55 797Q55 922 107 1040T247
1246T454 1387T701 1440H1519V-216H1447V1368H701Q550 1368 417 1288T206 1076T127 797Q127 670 173 558T298 368T482 245T701 200ZM1087 -216H1015V936H701Q640 936 600 896T559 797Q559 702 595 667T701 632H975V560H701Q487 560 487 797Q487 879 551 943T701
1008H1087V-216Z" />
<glyph unicode="r" glyph-name="r" horiz-adv-x="1703" d="M637 688H1071Q1157 688 1217 742T1277 894Q1277 966 1215 1023T1071 1080H453V0H381V1152H1071Q1182 1152 1265 1074T1349 894Q1349 767 1268 692T1071 616H637V688ZM637 544H1071Q1215 544 1318 642T1421
894Q1421 1025 1316 1124T1071 1224H309V0H237V1296H1071Q1241 1296 1367 1176T1493 894Q1493 714 1369 593T1071 472H637V544ZM637 400H1071Q1204 400 1317 464T1497 642T1565 894Q1565 1019 1498 1128T1317 1303T1071 1368H165V0H93V1440H1071Q1184 1440 1288
1396T1469 1278T1591 1103T1637 894Q1637 719 1557 589T1342 390L1493 0H1416L1273 361Q1246 352 1210 343L1345 0H1268L1136 331Q1105 328 1071 328L1198 0H1122L996 328H931L1052 0H976L854 328H637V400ZM597 0H525V1008H1071Q1127 1008 1166 975T1205 894Q1205
760 1071 760H637V832H1071Q1133 832 1133 894Q1133 911 1115 923T1071 936H597V0Z" />
<glyph unicode="s" glyph-name="s" horiz-adv-x="1399" d="M755 685H641Q431 685 318 770T205 1006Q205 1146 338 1239T711 1333Q871 1333 1009 1289T1240 1165L1184 1120Q1102 1187 978 1224T711 1261Q500 1261 389 1189T277 1006Q277 886 368 822T641 757H751Q964
757 1077 672T1191 436Q1191 296 1058 203T685 109Q525 109 387 153T156 277L212 322Q294 255 418 218T685 181Q896 181 1007 253T1119 436Q1119 556 1028 620T755 685ZM755 541H641Q363 541 212 667T61 1006Q61 1103 104 1188T227 1337T433 1439T711 1477Q904
1477 1072 1419T1352 1255L1294 1212Q1192 1304 1039 1354T711 1405Q441 1405 287 1291T133 1006Q133 825 265 719T641 613H751Q1047 613 1047 436Q1047 356 957 305T685 253Q558 253 449 282T269 367L326 411Q451 325 685 325Q835 325 905 356T975 436Q975 493
926 517T755 541ZM755 829H641Q349 829 349 1006Q349 1086 439 1137T711 1189Q838 1189 947 1160T1127 1075L1070 1031Q945 1117 711 1117Q561 1117 491 1086T421 1006Q421 949 470 925T641 901H755Q1033 901 1184 775T1335 436Q1335 339 1292 254T1169 105T963
3T685 -35Q492 -35 324 23T44 187L102 230Q204 138 357 88T685 37Q955 37 1109 151T1263 436Q1263 617 1131 723T755 829Z" />
<glyph unicode="t" glyph-name="t" horiz-adv-x="1205" d="M348 1041H420V0H348V1041ZM60 1368V1440H1140V1368H60ZM60 1224V1296H1140V1224H60ZM60 1080V1152H1140V1080H60ZM780 1041H852V0H780V1041ZM636 1041H708V0H636V1041ZM492 1041H564V0H492V1041Z" />
<glyph unicode="u" glyph-name="u" horiz-adv-x="1630" d="M1038 638V1440H1110V638Q1110 524 1023 442T812 360T602 442T514 638V1440H586V638Q586 553 652 493T812 432T971 492T1038 638ZM1182 638V1440H1254V638Q1254 463 1124 340T812 216T500 339T370 638V1440H442V638Q442
493 550 391T812 288Q964 288 1073 390T1182 638ZM1326 638V1440H1398V638Q1398 485 1319 355T1105 148T812 72T519 148T305 354T226 638V1440H298V638Q298 505 367 391T554 211T812 144T1069 210T1257 391T1326 638ZM1470 638V1440H1542V638Q1542 494 1484 363T1328
136T1095 -15T812 -72T529 -16T296 136T140 362T82 638V1440H154V638Q154 466 242 319T482 86T812 0T1141 86T1381 319T1470 638Z" />
<glyph unicode="v" glyph-name="v" horiz-adv-x="1752" d="M36 1440H114L645 97L1176 1440H1253L684 0H606L36 1440ZM191 1440H268L695 360L654 268L191 1440ZM346 1440H424L772 557L734 458L346 1440ZM501 1440H578L848 757L810 656L501 1440ZM1640 1440H1718L1148
0H1071L1640 1440ZM1486 1440H1563L993 0H916L1486 1440ZM1330 1440H1408L838 0H761L1330 1440Z" />
<glyph unicode="w" glyph-name="w" horiz-adv-x="2314" d="M1534 462T1564 462T1614 463T1657 471T1692 489T1713 520T1722 570V1440H1794V570Q1794 390 1564 390Q1448 390 1392 434Q1384 395 1373 365Q1449 318 1564 318Q1698 318 1782 380T1866 570V1440H1938V570Q1938
413 1833 330T1564 246Q1437 246 1346 298Q1331 266 1311 237Q1420 174 1564 174Q1657 174 1737 200T1879 275T1975 400T2010 570V1440H2082V570Q2082 426 2012 318T1825 156T1564 102Q1396 102 1268 179Q1240 147 1217 127Q1366 30 1564 30Q1727 30 1860 94T2073
282T2154 570V1440H2226V570Q2226 432 2174 316T2032 122T1821 1T1564 -42Q1326 -42 1157 80Q982 -42 744 -42Q608 -42 487 1T277 122T135 316T82 570V1440H154V570Q154 447 200 344T327 173T514 68T744 30Q903 30 1039 102T1254 299T1334 570V1440H1406V570Q1406
541 1414 521T1436 489T1471 472T1513 464ZM974 1440V570Q974 390 744 390T514 570V1440H586V570Q586 541 594 521T616 489T651 472T693 464T744 462T794 463T837 471T872 489T893 520T902 570V1440H974ZM1118 1440V570Q1118 413 1013 330T744 246T476 329T370
570V1440H442V570Q442 443 526 381T744 318T962 380T1046 570V1440H1118ZM1262 1440V570Q1262 426 1192 318T1005 156T744 102T484 156T297 318T226 570V1440H298V570Q298 476 333 400T429 275T570 200T744 174T917 200T1059 275T1155 400T1190 570V1440H1262Z"
/>
<glyph unicode="x" glyph-name="x" horiz-adv-x="1618" d="M1491 1440H1579L661 0H571L1491 1440ZM1313 1440H1401L482 0H394L1313 1440ZM1135 1440H1224L305 0H216L1135 1440ZM957 1440H1047L127 0H39L957 1440ZM517 829L473 759L39 1440H127L517 829ZM832 197L876
267L1047 0H957L832 197ZM606 968L562 899L217 1440H305L606 968ZM921 337L965 406L1224 0H1136L921 337ZM695 1108L651 1038L394 1440H483L695 1108ZM1009 476L1054 546L1402 0H1313L1009 476ZM784 1247L739 1177L571 1440H661L784 1247ZM1098 615L1143 684L1579
0H1491L1098 615Z" />
<glyph unicode="y" glyph-name="y" horiz-adv-x="1502" d="M1400 1440H1472L1019 486V0H947V486L1400 1440ZM1256 1440H1328L875 486V0H803V486L1256 1440ZM1112 1440H1184L731 486V0H659V486L1112 1440ZM968 1440H1040L587 486V0H515V486L32 1440H104L550 559L968
1440ZM177 1440H249L606 761L570 682L177 1440ZM321 1440H394L678 919L641 840L321 1440ZM467 1440H539L750 1076L714 997L467 1440Z" />
<glyph unicode="z" glyph-name="z" horiz-adv-x="1464" d="M1388 360V288H829L875 360H1388ZM1388 216V144H740L785 216H1388ZM1388 72V0H660L704 72H1388ZM83 1079V1151H643L598 1079H83ZM83 1223V1295H727L681 1223H83ZM83 1367V1439H808L760 1367H83ZM590 0H501L1397
1439V1317L590 0ZM412 0H324L1222 1439H1309L412 0ZM234 0H146L1042 1439H1131L234 0ZM57 0V146L865 1439H954L57 0Z" />
<glyph unicode="{" glyph-name="braceleft" horiz-adv-x="813" d="M541 352V48Q541 -8 568 -40T636 -72H758V-144H639Q567 -144 518 -93T469 48V352Q469 437 442 507T368 622T263 691T137 716H57V788H135Q215 788 288 758T417 673T507 535T541 352ZM397 352V48Q397
-76 467 -146T639 -216H758V-288H641Q510 -288 418 -197T325 48V352Q325 458 273 515T140 572H57V644H137Q245 644 321 566T397 352ZM253 352V48Q253 -136 366 -248T638 -360H758V-432H639Q517 -432 414 -375T246 -207T181 48V352Q181 397 168 412T131 428H57V500H134Q185
500 219 463T253 352ZM498 659L443 712Q469 779 469 864V1249Q469 1339 518 1390T639 1441H758V1369H636Q595 1369 568 1337T541 1249V864Q541 753 498 659ZM382 760L315 794Q325 847 325 864V1249Q325 1403 417 1494T641 1585H758V1513H639Q537 1513 467 1443T397
1249V864Q397 814 382 760ZM249 817L177 825Q181 845 181 864V1249Q181 1393 245 1504T413 1672T639 1729H758V1657H638Q479 1657 366 1545T253 1249V864Q253 836 249 817Z" />
<glyph unicode="|" glyph-name="bar" horiz-adv-x="546" d="M382 1656H454V-215H382V1656ZM238 1656H310V-215H238V1656ZM94 1656H166V-215H94V1656Z" />
<glyph unicode="}" glyph-name="braceright" horiz-adv-x="813" d="M565 480L637 472Q633 452 633 433V48Q633 -96 569 -207T401 -375T175 -432H56V-360H176Q335 -360 448 -248T561 48V433Q561 461 565 480ZM432 537L499 503Q489 450 489 433V48Q489 -106 397
-197T173 -288H56V-216H175Q277 -216 347 -146T417 48V433Q417 483 432 537ZM316 638L371 585Q345 518 345 433V48Q345 -42 296 -93T175 -144H56V-72H178Q219 -72 246 -40T273 48V433Q273 544 316 638ZM561 945V1249Q561 1433 448 1545T176 1657H56V1729H175Q297
1729 400 1672T568 1504T633 1249V945Q633 900 646 885T683 869H757V797H680Q629 797 595 834T561 945ZM417 945V1249Q417 1373 347 1443T175 1513H56V1585H173Q304 1585 396 1494T489 1249V945Q489 839 541 782T674 725H757V653H677Q569 653 493 731T417 945ZM273
945V1249Q273 1305 246 1337T178 1369H56V1441H175Q247 1441 296 1390T345 1249V945Q345 860 372 790T446 675T551 606T677 581H757V509H679Q599 509 526 539T397 624T307 762T273 945Z" />
<glyph unicode="~" glyph-name="asciitilde" horiz-adv-x="1363" d="M1080 1512H1152Q1152 1467 1144 1432T1123 1375T1089 1337T1052 1313T1010 1301T971 1297T936 1296H433Q404 1296 390 1295T352 1287T318 1265T298 1223T289 1152H217Q217 1197 225 1232T246
1289T280 1327T317 1351T359 1363T398 1367T433 1368H936Q965 1368 979 1369T1017 1377T1051 1399T1071 1441T1080 1512ZM1224 1512H1296Q1296 1454 1288 1406T1268 1322T1235 1260T1194 1215T1145 1185T1094 1166T1039 1157T987 1153T936 1152H433V1224H936Q968
1224 984 1224T1030 1227T1075 1235T1114 1250T1151 1274T1181 1310T1205 1360T1218 1426T1224 1512ZM433 1512H936V1440H433Q401 1440 385 1440T339 1437T294 1429T255 1414T218 1390T188 1354T164 1304T151 1238T145 1152H73Q73 1210 81 1258T101 1342T134 1404T175
1449T224 1479T275 1498T330 1507T382 1511T433 1512Z" />
<glyph unicode="&#xa0;" glyph-name="uni00A0" horiz-adv-x="222" />
<glyph unicode="&#xa1;" glyph-name="exclamdown" horiz-adv-x="689" d="M94 216V288H598V216H94ZM94 72V144H598V72H94ZM94 -72V0H598V-72H94ZM526 1656H598V432H526V1656ZM382 1656H454V432H382V1656ZM238 1656H310V432H238V1656ZM94 1656H166V432H94V1656Z" />
<glyph unicode="&#xa2;" glyph-name="cent" horiz-adv-x="1451" d="M1015 972L1073 1016Q1023 1079 949 1115T791 1152Q667 1152 579 1064T491 852Q491 723 579 633T791 542Q874 542 948 577T1072 676L1016 723Q975 672 917 643T791 614Q697 614 630 683T563 852Q563
946 630 1013T791 1080Q928 1080 1015 972ZM1128 1062L1185 1106Q1115 1195 1012 1245T791 1296Q608 1296 478 1166T347 852Q347 664 477 531T791 398Q908 398 1011 448T1184 587L1129 633Q1069 557 980 514T791 470Q638 470 529 582T419 852Q419 1006 528 1115T791
1224Q891 1224 979 1181T1128 1062ZM1242 1151L1298 1196Q1207 1310 1075 1375T791 1440Q672 1440 563 1393T376 1268T250 1080T203 852Q203 731 250 620T375 429T563 302T791 254Q941 254 1073 318T1296 496L1242 543Q1161 442 1043 384T791 326Q686 326 591 368T426
480T316 648T275 852Q275 957 316 1052T426 1217T590 1327T791 1368Q925 1368 1043 1310T1242 1151ZM1352 1243L1410 1286Q1299 1425 1137 1504T791 1584Q643 1584 508 1526T274 1370T117 1136T59 852Q59 702 117 565T273 328T507 169T791 110Q975 110 1136 189T1409
407L1352 451Q1251 326 1105 254T791 182Q657 182 535 235T325 378T184 592T131 852Q131 986 183 1108T324 1318T535 1459T791 1512Q958 1512 1104 1440T1352 1243ZM863 81L935 89V-176H863V81ZM935 1604L863 1614V1840H935V1604ZM647 93L719 80V-176H647V93ZM719
1612L647 1600V1840H719V1612Z" />
<glyph unicode="&#xa3;" glyph-name="sterling" horiz-adv-x="1413" d="M628 899V971H1163V899H628ZM628 755V827H1163V755H628ZM627 611V683H1163V611H627ZM443 1152V0H371V1152Q371 1280 461 1360T733 1440Q860 1440 969 1411T1149 1326L1092 1282Q967 1368
733 1368Q582 1368 513 1309T443 1152ZM299 1152V0H227V1152Q227 1339 360 1461T733 1584Q893 1584 1031 1540T1262 1416L1206 1371Q1124 1438 1000 1475T733 1512Q522 1512 411 1411T299 1152ZM155 1152V0H83V1152Q83 1248 110 1334T191 1492T322 1616T504 1698T733
1728Q926 1728 1094 1670T1374 1506L1316 1463Q1214 1555 1061 1605T733 1656Q596 1656 486 1617T304 1508T194 1348T155 1152ZM515 0V1152Q515 1296 733 1296Q935 1296 1037 1236L979 1192Q909 1224 733 1224Q647 1224 617 1205T587 1152V360H1163V288H587V216H1163V144H587V72H1163V0H515Z"
/>
<glyph unicode="&#xa4;" glyph-name="currency" horiz-adv-x="1466" d="M301 1135L255 1076L47 1341L106 1383L301 1135ZM939 201L1004 235L1186 3L1128 -40L939 201ZM409 1229L351 1187L164 1426L221 1469L409 1229ZM1066 271L1122 317L1302 88L1244 45L1066
271ZM543 1292L471 1268L280 1511L338 1553L543 1292ZM1173 368L1218 429L1419 173L1360 131L1173 368ZM411 902T411 750T496 508T733 418T970 508T1055 750T970 992T733 1082T496 992ZM339 569T339 750T445 1042T733 1154T1020 1043T1127 750T1021 458T733 346T446
457ZM267 961T267 750T394 407T733 274T1071 406T1199 750T1072 1093T733 1226T395 1094ZM195 510T195 750T344 1144T733 1298T1122 1144T1271 750T1122 356T733 202T344 356ZM1211 1076L1165 1135L1360 1383L1419 1341L1211 1076ZM462 235L527 201L338 -40L280
3L462 235ZM1115 1187L1057 1229L1245 1469L1302 1426L1115 1187ZM344 317L400 271L222 45L164 88L344 317ZM995 1268L923 1292L1128 1553L1186 1511L995 1268ZM248 429L293 368L106 131L47 173L248 429Z" />
<glyph unicode="&#xa5;" glyph-name="yen" horiz-adv-x="1632" d="M655 833L619 754L187 1656H259L655 833ZM727 991L690 912L331 1656H403L727 991ZM799 1148L763 1069L475 1656H547L799 1148ZM1102 288V360H1390V288H1102ZM1102 432V504H1390V432H1102ZM238
288V360H526V288H238ZM238 432V504H526V432H238ZM708 558L1229 1656H1301L780 558V0H708V558ZM852 558L1373 1656H1445L924 558V0H852V558ZM996 558L1517 1656H1589L1068 558V0H996V558ZM600 634L1085 1656H1157L636 558V0H564V558L43 1656H115L600 634Z" />
<glyph unicode="&#xa6;" glyph-name="brokenbar" horiz-adv-x="540" d="M378 576H450V-218H378V576ZM234 576H306V-218H234V576ZM90 576H162V-218H90V576ZM378 1656H450V864H378V1656ZM234 1656H306V864H234V1656ZM90 1656H162V864H90V1656Z" />
<glyph unicode="&#xa7;" glyph-name="section" horiz-adv-x="222" />
<glyph unicode="&#xa8;" glyph-name="dieresis" horiz-adv-x="1140" d="M985 1736H1057V1512H985V1736ZM841 1736H913V1512H841V1736ZM697 1736H769V1512H697V1736ZM371 1736H443V1512H371V1736ZM227 1736H299V1512H227V1736ZM83 1736H155V1512H83V1736Z" />
<glyph unicode="&#xa9;" glyph-name="copyright" horiz-adv-x="1781" d="M1249 626L1333 561Q1256 464 1144 408T902 352Q753 352 627 425T427 625T353 900T426 1175T626 1375T902 1449Q1031 1449 1143 1393T1333 1240L1250 1174Q1189 1253 1098 1298T902 1343Q785
1343 686 1284T528 1123T470 900T528 679T685 518T902 459Q1006 459 1097 503T1249 626ZM174 1048T174 900T231 618T384 386T612 231T891 173T1169 230T1398 385T1551 617T1608 900T1551 1182T1398 1414T1170 1569T891 1627T613 1570T384 1415T231 1183ZM63 732T63
900T128 1221T305 1486T569 1662T891 1728T1212 1663T1477 1486T1653 1222T1719 900T1654 579T1477 314T1213 138T891 72T570 137T305 314T129 578Z" />
<glyph unicode="&#xaa;" glyph-name="ordfeminine" horiz-adv-x="1707" d="M1127 710Q1127 838 1048 908T839 978Q729 978 650 902T571 720Q571 660 587 613T630 534T696 482T775 452T864 443Q978 443 1072 499V427Q975 376 863 376Q791 376 728 395T612 454T530
562T499 720Q499 858 596 954T839 1050Q1000 1050 1099 960T1199 710V0H1127V710ZM1343 710V0H1271V710Q1271 899 1150 1010T839 1122Q663 1122 545 1005T427 720Q427 618 462 537T559 407T695 333T855 307Q969 307 1072 360V284Q964 239 854 239Q755 239 666 269T507
358T396 510T355 720Q355 917 494 1055T839 1194Q983 1194 1097 1136T1277 966T1343 710ZM1487 710V0H1415V710Q1415 875 1340 1002T1133 1198T839 1266Q684 1266 556 1193T356 994T283 720Q283 592 330 487T456 313T637 208T850 170Q963 170 1072 217V144Q958
101 848 101Q675 101 530 179T298 400T211 720Q211 846 259 960T391 1157T591 1289T839 1338Q1022 1338 1169 1260T1402 1038T1487 710ZM1631 710V0H1559V710Q1559 914 1464 1074T1205 1322T839 1410Q645 1410 484 1317T231 1066T139 720Q139 597 178 487T286 294T444
151T637 60T848 29Q966 29 1072 74V0Q961 -39 844 -39Q723 -39 609 -5T397 95T225 252T109 464T67 720Q67 875 125 1015T285 1258T531 1421T839 1482Q1005 1482 1151 1426T1403 1271T1570 1026T1631 710Z" />
<glyph unicode="&#xab;" glyph-name="guillemotleft" horiz-adv-x="1867" d="M1784 629V552L1450 684L1549 722L1784 629ZM1784 474V397L1260 604L1352 645L1784 474ZM1784 1257V1180L992 866V943L1784 1257ZM1784 1102V1024L992 711V788L1784 1102ZM1784 947V870L1089
595L1784 320V243L992 556V634L1784 947ZM870 629V552L536 684L635 722L870 629ZM870 474V397L346 604L438 645L870 474ZM870 1257V1180L78 866V943L870 1257ZM870 1102V1024L78 711V788L870 1102ZM870 947V870L175 595L870 320V243L78 556V634L870 947Z" />
<glyph unicode="&#xac;" glyph-name="logicalnot" horiz-adv-x="1471" d="M1310 1080H1382V432H1310V1080ZM1166 1080H1238V432H1166V1080ZM1022 1008H86V1080H1094V432H1022V720H86V792H1022V864H86V936H1022V1008Z" />
<glyph unicode="&#xae;" glyph-name="registered" horiz-adv-x="1781" d="M1004 1243H680V919H1004Q1071 919 1118 966T1166 1080T1119 1195T1004 1243ZM1247 432H1115L937 812Q878 812 793 812T680 811V432H563V1349H1004Q1119 1349 1201 1270T1283 1080Q1283
985 1221 912T1060 818L1247 432ZM174 1048T174 900T231 618T384 386T612 231T891 173T1169 230T1398 385T1551 617T1608 900T1551 1182T1398 1414T1170 1569T891 1627T613 1570T384 1415T231 1183ZM63 732T63 900T128 1221T305 1486T569 1662T891 1728T1212 1663T1477
1486T1653 1222T1719 900T1654 579T1477 314T1213 138T891 72T570 137T305 314T129 578Z" />
<glyph unicode="&#xb0;" glyph-name="degree" horiz-adv-x="677" d="M126 1940T126 1852T188 1702T339 1639T489 1701T552 1852T490 2002T339 2065T189 2003ZM67 1740T67 1852T146 2042T339 2120T531 2042T611 1852T532 1662T339 1584T147 1662ZM236 1895T236
1852T266 1779T339 1749T412 1779T442 1852T412 1925T339 1955T266 1925ZM177 1787T177 1852T224 1963T339 2010T453 1964T501 1852T454 1741T339 1694T225 1740Z" />
<glyph unicode="&#xb1;" glyph-name="plusminus" horiz-adv-x="1226" d="M1104 286V214H142V286H1104ZM1104 142V70H142V142H1104ZM74 937V1009H371V1297H443V361H371V649H73V721H371V793H74V865H371V937H74ZM803 1297H875V1009H1153V937H875V865H1153V793H875V721H1153V649H875V361H803V1297ZM659
1297H731V361H659V1297ZM515 1297H587V361H515V1297Z" />
<glyph unicode="&#xb2;" glyph-name="uni00B2" horiz-adv-x="891" d="M60 503V575H775V503H60ZM60 359V431H775V359H60ZM171 615H87Q198 766 357 979Q528 1210 570 1272T612 1367Q612 1414 577 1426T448 1439Q292 1439 136 1398L121 1467Q146 1478 247 1495T443
1513Q500 1513 542 1507T618 1485T671 1440T689 1367T645 1257T419 947Q271 750 171 615ZM341 615H250Q623 1117 664 1176Q748 1296 758 1347Q761 1361 761 1377Q761 1584 447 1584Q351 1584 252 1567T107 1533L93 1602Q264 1655 448 1655Q529 1655 596 1641T719
1596T808 1510T840 1377Q840 1314 779 1220T416 717Q400 695 391 683T368 652T341 615Z" />
<glyph unicode="&#xb3;" glyph-name="uni00B3" horiz-adv-x="1056" d="M489 548Q295 548 136 578L150 645Q281 620 489 620Q637 620 637 698Q637 760 494 760H276V832H495Q587 832 648 800T709 698Q709 623 648 586T489 548ZM637 1142L568 1157Q577 1172 577 1207Q577
1295 429 1295Q230 1295 122 1262L108 1329Q242 1367 429 1367Q526 1367 587 1327T649 1207Q649 1164 637 1142ZM94 1397L80 1467Q233 1511 429 1511Q585 1511 689 1430T793 1207Q793 1150 771 1094L704 1121Q721 1159 721 1207Q721 1317 638 1378T429 1439Q243
1439 94 1397ZM895 1026L836 1062Q865 1131 865 1207Q865 1378 740 1480T429 1583Q240 1583 66 1535L51 1607Q224 1655 429 1655Q569 1655 684 1601T868 1444T937 1207Q937 1110 895 1026ZM489 476Q615 476 698 534T781 698Q781 795 700 849T503 904H276V976H504Q649
976 751 901T853 698Q853 561 749 483T489 404Q285 404 108 440L122 510Q297 476 489 476ZM489 332Q675 332 800 431T925 698Q925 857 803 952T508 1048H276V1120H510Q642 1120 754 1065T931 912T997 698Q997 568 928 467T744 313T489 260Q277 260 79 300L94 372Q291
332 489 332Z" />
<glyph unicode="&#xb4;" glyph-name="acute" horiz-adv-x="967" d="M127 1561L70 1613L737 1939L794 1887L127 1561ZM241 1457L184 1509L850 1835L908 1782L241 1457Z" />
<glyph unicode="&#xb5;" glyph-name="uni00B5" horiz-adv-x="1643" d="M528 1440H600V-216H528V1440ZM384 1440H456V-216H384V1440ZM240 1440H312V-216H240V1440ZM96 1440H168V-216H96V1440ZM642 385V462Q693 432 830 432Q924 432 990 493T1056 638V1440H1128V638Q1128
523 1040 442T830 360Q706 360 642 385ZM642 235V313Q711 288 830 288Q982 288 1091 390T1200 638V1440H1272V638Q1272 464 1143 340T830 216Q699 216 642 235ZM642 88V165Q701 144 830 144Q968 144 1086 210T1274 390T1344 638V1440H1416V638Q1416 485 1338 355T1124
149T830 72Q715 72 642 88ZM642 -58V17Q727 0 830 0Q1007 0 1158 85T1399 318T1488 638V1440H1560V638Q1560 494 1502 363T1346 136T1112 -15T830 -72Q718 -72 642 -58Z" />
<glyph unicode="&#xb6;" glyph-name="paragraph" horiz-adv-x="1385" d="M787 822V936H643Q613 936 592 921T571 884Q571 822 643 822H787ZM499 884Q499 935 541 971T643 1008H859V-144H931V1080H643Q559 1080 493 1020T427 884Q427 786 490 732T643 678H787V750H643Q499
750 499 884ZM1219 -144V1368H643Q509 1368 393 1302T208 1123T139 884Q139 746 208 632T392 454T643 390H787V462H643Q466 462 339 583T211 884Q211 1049 340 1172T643 1296H1147V-144H1219ZM1003 -216H787V318H643Q526 318 422 357T238 467T113 647T67 884Q67
994 113 1096T238 1274T422 1395T643 1440H1291V-216H1075V1224H643Q499 1224 391 1122T283 884Q283 730 389 632T643 534H787V606H643Q523 606 439 681T355 884Q355 990 441 1071T643 1152H1003V-216Z" />
<glyph unicode="&#xb7;" glyph-name="middot" horiz-adv-x="533" d="M86 1080V1152H446V1080H86ZM86 936V1008H446V936H86ZM86 792V864H446V792H86Z" />
<glyph unicode="&#xb8;" glyph-name="cedilla" horiz-adv-x="659" d="M238 -493T238 -469T239 -431T249 -392T276 -352T328 -325T414 -313H486V-109H558V-385H414Q377 -385 355 -391T323 -412T312 -437T310 -469T312 -500T323 -525T354 -546T414 -553H558V-625H414Q364
-625 329 -613T276 -587T250 -547T239 -507ZM94 -469Q94 -428 96 -398T113 -324T152 -252T225 -202T342 -180V-109H414V-241Q348 -241 302 -252T229 -281T189 -330T170 -392T166 -469Q166 -500 166 -518T171 -563T185 -607T212 -642T256 -672T322 -690T414 -697H558V-769H414Q362
-769 319 -763T245 -746T190 -718T150 -684T123 -643T107 -601T98 -555T95 -512T94 -469Z" />
<glyph unicode="&#xb9;" glyph-name="uni00B9" horiz-adv-x="736" d="M59 1440V1512H645V505H573V1440H501V505H429V1440H357V505H285V1440H59ZM59 1584V1656H645V1584H59Z" />
<glyph unicode="&#xba;" glyph-name="ordmasculine" horiz-adv-x="1712" d="M569 839T569 720T653 517T857 432T1060 516T1145 720T1061 923T857 1008T654 924ZM497 571T497 720T602 974T857 1080T1111 975T1217 720T1112 466T857 360T603 465ZM425 898T425 720T551
415T857 288T1162 415T1289 720T1163 1025T857 1152T552 1025ZM353 583T353 720T420 973T604 1156T857 1224T1110 1157T1293 973T1361 720T1294 467T1110 284T857 216T604 283T421 467ZM281 837T281 720T326 497T449 313T633 190T857 144T1080 189T1264 312T1387
496T1433 720T1388 943T1265 1127T1081 1250T857 1296T634 1251T450 1128T327 944ZM209 588T209 720T260 972T398 1178T605 1316T857 1368T1109 1317T1315 1179T1453 972T1505 720T1454 468T1316 262T1109 124T857 72T605 123T399 261T261 468ZM137 866T137 720T194
441T347 211T577 57T857 0T1136 57T1366 210T1520 440T1577 720T1520 999T1367 1229T1137 1383T857 1440T578 1383T348 1230T194 1000ZM65 559T65 720T128 1027T297 1280T549 1449T857 1512T1164 1449T1417 1280T1586 1028T1649 720T1586 413T1417 160T1165 -9T857
-72T550 -9T297 160T128 412Z" />
<glyph unicode="&#xbb;" glyph-name="guillemotright" horiz-adv-x="1868" d="M999 870V947L1791 634V556L999 243V320L1694 595L999 870ZM999 1024V1102L1791 788V711L999 1024ZM999 1180V1257L1791 943V866L999 1180ZM999 397V474L1431 645L1523 604L999 397ZM999
552V629L1234 722L1333 684L999 552ZM85 870V947L877 634V556L85 243V320L780 595L85 870ZM85 1024V1102L877 788V711L85 1024ZM85 1180V1257L877 943V866L85 1180ZM85 397V474L517 645L609 604L85 397ZM85 552V629L320 722L419 684L85 552Z" />
<glyph unicode="&#xbc;" glyph-name="onequarter" horiz-adv-x="2532" d="M2231 1H2159V180H2231V1ZM2375 1H2303V180H2375V1ZM2231 612H2159V826H2231V612ZM2375 612H2303V826H2375V612ZM1531 505V577H2484V505H1531ZM1531 361V433H2484V361H1531ZM1531 217V289H2484V217H1531ZM1868
1331L1951 1332L1613 613H1529L1868 1331ZM2032 1331H2112L1776 613H1692L2032 1331ZM2193 1331H2275L1943 613H1859L2193 1331ZM1453 1655H1527L1063 -194H989L1453 1655ZM1303 1655H1378L914 -194H840L1303 1655ZM1153 1655H1228L765 -194H690L1153 1655ZM50
1440V1512H636V505H564V1440H492V505H420V1440H348V505H276V1440H50ZM50 1584V1656H636V1584H50Z" />
<glyph unicode="&#xbd;" glyph-name="onehalf" horiz-adv-x="2365" d="M1530 145V217H2245V145H1530ZM1530 1V73H2245V1H1530ZM1641 257H1557Q1668 408 1827 621Q1998 852 2040 914T2082 1009Q2082 1056 2047 1068T1918 1081Q1762 1081 1606 1040L1591 1109Q1616
1120 1717 1137T1913 1155Q1970 1155 2012 1149T2088 1127T2141 1082T2159 1009T2115 899T1889 589Q1741 392 1641 257ZM1811 257H1720Q2093 759 2134 818Q2218 938 2228 989Q2231 1003 2231 1019Q2231 1226 1917 1226Q1821 1226 1722 1209T1577 1175L1563 1244Q1734
1297 1918 1297Q1999 1297 2066 1283T2189 1238T2278 1152T2310 1019Q2310 956 2249 862T1886 359Q1870 337 1861 325T1838 294T1811 257ZM1453 1655H1527L1063 -194H989L1453 1655ZM1303 1655H1378L914 -194H840L1303 1655ZM1153 1655H1228L765 -194H690L1153
1655ZM50 1440V1512H636V505H564V1440H492V505H420V1440H348V505H276V1440H50ZM50 1584V1656H636V1584H50Z" />
<glyph unicode="&#xbe;" glyph-name="threequarters" horiz-adv-x="2755" d="M2454 1H2382V180H2454V1ZM2598 1H2526V180H2598V1ZM2454 612H2382V826H2454V612ZM2598 612H2526V826H2598V612ZM1754 505V577H2707V505H1754ZM1754 361V433H2707V361H1754ZM1754 217V289H2707V217H1754ZM2091
1331L2174 1332L1836 613H1752L2091 1331ZM2255 1331H2335L1999 613H1915L2255 1331ZM2416 1331H2498L2166 613H2082L2416 1331ZM1737 1655H1811L1347 -194H1273L1737 1655ZM1587 1655H1662L1198 -194H1124L1587 1655ZM1437 1655H1512L1049 -194H974L1437 1655ZM485
548Q291 548 132 578L146 645Q277 620 485 620Q633 620 633 698Q633 760 490 760H272V832H491Q583 832 644 800T705 698Q705 623 644 586T485 548ZM633 1142L564 1157Q573 1172 573 1207Q573 1295 425 1295Q226 1295 118 1262L104 1329Q238 1367 425 1367Q522 1367
583 1327T645 1207Q645 1164 633 1142ZM90 1397L76 1467Q229 1511 425 1511Q581 1511 685 1430T789 1207Q789 1150 767 1094L700 1121Q717 1159 717 1207Q717 1317 634 1378T425 1439Q238 1439 90 1397ZM891 1026L832 1062Q861 1131 861 1207Q861 1378 736 1480T425
1583Q236 1583 62 1535L47 1607Q219 1655 425 1655Q565 1655 680 1601T864 1444T933 1207Q933 1110 891 1026ZM485 476Q611 476 694 534T777 698Q777 795 696 849T499 904H272V976H500Q645 976 747 901T849 698Q849 561 745 483T485 404Q281 404 104 440L118 510Q293
476 485 476ZM485 332Q671 332 796 431T921 698Q921 857 799 952T504 1048H272V1120H506Q638 1120 750 1065T927 912T993 698Q993 568 924 467T740 313T485 260Q273 260 75 300L90 372Q287 332 485 332Z" />
<glyph unicode="&#xbf;" glyph-name="questiondown" horiz-adv-x="1421" d="M660 1656Q491 1656 345 1606T99 1463L41 1506Q150 1611 311 1669T660 1728Q804 1728 932 1685T1156 1566T1306 1378T1362 1136Q1362 1007 1315 897T1187 714T1003 599T785 557Q773 557
741 558T679 559T630 557V625H781Q877 625 968 661T1131 761T1246 924T1290 1136Q1290 1251 1240 1349T1105 1514T905 1618T660 1656ZM660 1512Q524 1512 407 1476T209 1371L153 1416Q242 1496 374 1540T660 1584T940 1530T1142 1373T1218 1136Q1218 1011 1157
910T991 753T761 697Q697 697 630 690V763Q699 766 759 766Q863 766 949 807T1091 934T1146 1136Q1146 1307 1007 1409T660 1512ZM660 1368Q442 1368 323 1282L266 1326Q406 1440 660 1440Q838 1440 956 1359T1074 1136Q1074 996 979 916T745 835Q700 835 630 830V906Q687
903 744 903Q852 903 927 963T1002 1136Q1002 1246 905 1307T660 1368ZM660 1224Q501 1224 436 1192L378 1236Q475 1296 660 1296Q779 1296 854 1256T930 1136Q930 1051 872 1012T726 972Q660 972 630 973V1045Q664 1039 725 1039Q784 1039 821 1062T858 1136Q858
1224 660 1224ZM621 73V1H182V73H621ZM621 217V145H182V217H621ZM621 361V289H182V361H621ZM294 432H222V1039H294V432ZM438 432H366V1039H438V432ZM582 432H510V1039H582V432Z" />
<glyph unicode="&#xc0;" glyph-name="Agrave" horiz-adv-x="1918" d="M1072 1934L1129 1986L462 2312L406 2260L1072 1934ZM958 1830L1015 1882L349 2208L291 2155L958 1830ZM808 486L837 558H1083L1112 486H808ZM752 342L780 414H1139L1170 342H752ZM696 198L724
270H1196L1226 198H696ZM111 0H33L688 1656H766L1420 0H1343L727 1559L111 0ZM736 1388L777 1296L265 0H188L736 1388ZM816 1198L854 1099L421 0H343L816 1198ZM892 1000L930 899L575 0H498L892 1000ZM1885 0H1807L1153 1656H1230L1885 0ZM1075 1656L1730 0H1653L998
1656H1075ZM920 1656L1575 0H1497L843 1656H920Z" />
<glyph unicode="&#xc1;" glyph-name="Aacute" horiz-adv-x="1918" d="M845 1934L788 1986L1455 2312L1512 2260L845 1934ZM959 1830L902 1882L1568 2208L1626 2155L959 1830ZM808 486L837 558H1083L1112 486H808ZM752 342L780 414H1139L1170 342H752ZM696 198L724
270H1196L1226 198H696ZM111 0H33L688 1656H766L1420 0H1343L727 1559L111 0ZM736 1388L777 1296L265 0H188L736 1388ZM816 1198L854 1099L421 0H343L816 1198ZM892 1000L930 899L575 0H498L892 1000ZM1885 0H1807L1153 1656H1230L1885 0ZM1075 1656L1730 0H1653L998
1656H1075ZM920 1656L1575 0H1497L843 1656H920Z" />
<glyph unicode="&#xc2;" glyph-name="Acircumflex" horiz-adv-x="1918" d="M1268 1830L1075 2318H998L1191 1830H1268ZM882 1830L932 1958L891 2050L804 1830H882ZM727 1830L881 2222L1036 1830H1114L921 2318H843L650 1830H727ZM808 486L837 558H1083L1112 486H808ZM752
342L780 414H1139L1170 342H752ZM696 198L724 270H1196L1226 198H696ZM111 0H33L688 1656H766L1420 0H1343L727 1559L111 0ZM736 1388L777 1296L265 0H188L736 1388ZM816 1198L854 1099L421 0H343L816 1198ZM892 1000L930 899L575 0H498L892 1000ZM1885 0H1807L1153
1656H1230L1885 0ZM1075 1656L1730 0H1653L998 1656H1075ZM920 1656L1575 0H1497L843 1656H920Z" />
<glyph unicode="&#xc3;" glyph-name="Atilde" horiz-adv-x="1918" d="M1354 2190H1426Q1426 2145 1418 2110T1397 2053T1363 2015T1326 1991T1284 1979T1245 1975T1210 1974H707Q678 1974 664 1973T626 1965T592 1943T572 1901T563 1830H491Q491 1875 499 1910T520
1967T554 2005T591 2029T633 2041T672 2045T707 2046H1210Q1239 2046 1253 2047T1291 2055T1325 2077T1345 2119T1354 2190ZM1498 2190H1570Q1570 2132 1562 2084T1542 2000T1509 1938T1468 1893T1419 1863T1368 1844T1313 1835T1261 1831T1210 1830H707V1902H1210Q1242
1902 1258 1902T1304 1905T1349 1913T1388 1928T1425 1952T1455 1988T1479 2038T1492 2104T1498 2190ZM707 2190H1210V2118H707Q675 2118 659 2118T613 2115T568 2107T529 2092T492 2068T462 2032T438 1982T425 1916T419 1830H347Q347 1888 355 1936T375 2020T408
2082T449 2127T498 2157T549 2176T604 2185T656 2189T707 2190ZM808 486L837 558H1083L1112 486H808ZM752 342L780 414H1139L1170 342H752ZM696 198L724 270H1196L1226 198H696ZM111 0H33L688 1656H766L1420 0H1343L727 1559L111 0ZM736 1388L777 1296L265 0H188L736
1388ZM816 1198L854 1099L421 0H343L816 1198ZM892 1000L930 899L575 0H498L892 1000ZM1885 0H1807L1153 1656H1230L1885 0ZM1075 1656L1730 0H1653L998 1656H1075ZM920 1656L1575 0H1497L843 1656H920Z" />
<glyph unicode="&#xc4;" glyph-name="Adieresis" horiz-adv-x="1918" d="M1373 2054H1445V1830H1373V2054ZM1229 2054H1301V1830H1229V2054ZM1085 2054H1157V1830H1085V2054ZM759 2054H831V1830H759V2054ZM615 2054H687V1830H615V2054ZM471 2054H543V1830H471V2054ZM808
486L837 558H1083L1112 486H808ZM752 342L780 414H1139L1170 342H752ZM696 198L724 270H1196L1226 198H696ZM111 0H33L688 1656H766L1420 0H1343L727 1559L111 0ZM736 1388L777 1296L265 0H188L736 1388ZM816 1198L854 1099L421 0H343L816 1198ZM892 1000L930 899L575
0H498L892 1000ZM1885 0H1807L1153 1656H1230L1885 0ZM1075 1656L1730 0H1653L998 1656H1075ZM920 1656L1575 0H1497L843 1656H920Z" />
<glyph unicode="&#xc5;" glyph-name="Aring" horiz-adv-x="1918" d="M746 2066T746 1978T808 1828T959 1765T1109 1827T1172 1978T1110 2128T959 2191T809 2129ZM687 1866T687 1978T766 2168T959 2246T1151 2168T1231 1978T1152 1788T959 1710T767 1788ZM856 2021T856
1978T886 1905T959 1875T1032 1905T1062 1978T1032 2051T959 2081T886 2051ZM797 1913T797 1978T844 2089T959 2136T1073 2090T1121 1978T1074 1867T959 1820T845 1866ZM808 486L837 558H1083L1112 486H808ZM752 342L780 414H1139L1170 342H752ZM696 198L724 270H1196L1226
198H696ZM111 0H33L688 1656H766L1420 0H1343L727 1559L111 0ZM736 1388L777 1296L265 0H188L736 1388ZM816 1198L854 1099L421 0H343L816 1198ZM892 1000L930 899L575 0H498L892 1000ZM1885 0H1807L1153 1656H1230L1885 0ZM1075 1656L1730 0H1653L998 1656H1075ZM920
1656L1575 0H1497L843 1656H920Z" />
<glyph unicode="&#xc6;" glyph-name="AE" horiz-adv-x="2454" d="M809 486L838 558H1084L1113 486H809ZM753 342L781 414H1140L1171 342H753ZM697 198L725 270H1197L1227 198H697ZM112 0H34L689 1656Q689 1656 767 1656L1421 0H1344L728 1559L112 0ZM737 1388L778
1296L266 0H189L737 1388ZM817 1198L855 1099L422 0H344L817 1198ZM893 1000L931 899L576 0H499L893 1000ZM1076 1656L1731 0H1654L999 1656H1076ZM921 1656L1576 0H1498L844 1656H921ZM1735 360H2377V288H1765L1795 216H2377V144H1819L1847 72H2377V0H1798L1157
1656H2377V1584H1261L1291 1512H2377V1440H1318L1345 1368H2377V1296H1372L1489 1008H2253V936H1516L1543 864H2253V792H1570L1597 720H2253V648H1618L1735 360Z" />
<glyph unicode="&#xc7;" glyph-name="Ccedilla" horiz-adv-x="1745" d="M745 -434T745 -410T746 -372T756 -333T783 -293T835 -266T921 -254H993V-50H1065V-326H921Q884 -326 862 -332T830 -353T819 -378T817 -410T819 -441T830 -466T861 -487T921 -494H1065V-566H921Q871
-566 836 -554T783 -528T757 -488T746 -448ZM601 -410Q601 -369 603 -339T620 -265T659 -193T732 -143T849 -121V-50H921V-182Q855 -182 809 -193T736 -222T696 -271T677 -333T673 -410Q673 -441 673 -459T678 -504T692 -548T719 -583T763 -613T829 -631T921 -638H1065V-710H921Q869
-710 826 -704T752 -687T697 -659T657 -625T630 -584T614 -542T605 -496T602 -453T601 -410ZM1343 1090L1284 1051Q1230 1131 1144 1177T956 1224Q792 1224 676 1108T560 828T676 548T956 432Q1057 432 1143 479T1284 606L1342 564Q1278 470 1176 415T956 360Q861
360 775 397T625 497T525 646T488 828T525 1009T625 1159T774 1259T956 1296Q1075 1296 1177 1241T1343 1090ZM1462 1172L1402 1133Q1328 1241 1211 1304T956 1368Q809 1368 685 1296T489 1099T416 828T488 557T685 361T956 288Q1093 288 1211 352T1403 525L1462
484Q1378 360 1245 288T956 216Q790 216 649 298T426 521T344 828T426 1135T649 1358T956 1440Q1111 1440 1244 1368T1462 1172ZM1582 1252L1522 1213Q1428 1351 1279 1431T956 1512Q817 1512 690 1458T472 1313T326 1094T272 828T326 562T471 344T690 198T956
144Q1130 144 1279 225T1522 444L1580 401Q1476 249 1312 161T956 72Q751 72 577 173T302 449T200 828T301 1207T577 1482T956 1584Q1148 1584 1313 1495T1582 1252ZM1700 1334L1640 1295Q1526 1462 1346 1559T956 1656Q788 1656 635 1591T370 1414T194 1150T128
828T193 507T370 242T634 66T956 0Q1165 0 1346 98T1641 363L1699 319Q1575 139 1379 34T956 -72Q773 -72 607 -1T320 191T128 478T56 828T127 1177T319 1464T606 1656T956 1728Q1184 1728 1380 1622T1700 1334Z" />
<glyph unicode="&#xc8;" glyph-name="Egrave" horiz-adv-x="1447" d="M841 1934L898 1986L231 2312L175 2260L841 1934ZM727 1830L784 1882L118 2208L60 2155L727 1830ZM453 0H381V1656H453V0ZM309 0H237V1656H309V0ZM165 0H93V1656H165V0ZM597 360H1363V288H597V216H1363V144H597V72H1363V0H525V1656H1363V1584H597V1512H1363V1440H597V1368H1363V1296H597V1008H990V936H597V864H990V792H597V720H990V648H597V360Z"
/>
<glyph unicode="&#xc9;" glyph-name="Eacute" horiz-adv-x="1447" d="M614 1934L557 1986L1224 2312L1281 2260L614 1934ZM728 1830L671 1882L1337 2208L1395 2155L728 1830ZM453 0H381V1656H453V0ZM309 0H237V1656H309V0ZM165 0H93V1656H165V0ZM597 360H1363V288H597V216H1363V144H597V72H1363V0H525V1656H1363V1584H597V1512H1363V1440H597V1368H1363V1296H597V1008H990V936H597V864H990V792H597V720H990V648H597V360Z"
/>
<glyph unicode="&#xca;" glyph-name="Ecircumflex" horiz-adv-x="1447" d="M1037 1830L844 2318H767L960 1830H1037ZM651 1830L701 1958L660 2050L573 1830H651ZM496 1830L650 2222L805 1830H883L690 2318H612L419 1830H496ZM453 0H381V1656H453V0ZM309 0H237V1656H309V0ZM165
0H93V1656H165V0ZM597 360H1363V288H597V216H1363V144H597V72H1363V0H525V1656H1363V1584H597V1512H1363V1440H597V1368H1363V1296H597V1008H990V936H597V864H990V792H597V720H990V648H597V360Z" />
<glyph unicode="&#xcb;" glyph-name="Edieresis" horiz-adv-x="1447" d="M1142 2054H1214V1830H1142V2054ZM998 2054H1070V1830H998V2054ZM854 2054H926V1830H854V2054ZM528 2054H600V1830H528V2054ZM384 2054H456V1830H384V2054ZM240 2054H312V1830H240V2054ZM453
0H381V1656H453V0ZM309 0H237V1656H309V0ZM165 0H93V1656H165V0ZM597 360H1363V288H597V216H1363V144H597V72H1363V0H525V1656H1363V1584H597V1512H1363V1440H597V1368H1363V1296H597V1008H990V936H597V864H990V792H597V720H990V648H597V360Z" />
<glyph unicode="&#xcc;" glyph-name="Igrave" horiz-adv-x="694" d="M458 1934L515 1986L-152 2312L-208 2260L458 1934ZM344 1830L401 1882L-265 2208L-323 2155L344 1830ZM525 1656H597V0H525V1656ZM381 1656H453V0H381V1656ZM237 1656H309V0H237V1656ZM93 1656H165V0H93V1656Z"
/>
<glyph unicode="&#xcd;" glyph-name="Iacute" horiz-adv-x="694" d="M231 1934L174 1986L841 2312L898 2260L231 1934ZM345 1830L288 1882L954 2208L1012 2155L345 1830ZM525 1656H597V0H525V1656ZM381 1656H453V0H381V1656ZM237 1656H309V0H237V1656ZM93 1656H165V0H93V1656Z"
/>
<glyph unicode="&#xce;" glyph-name="Icircumflex" horiz-adv-x="694" d="M654 1830L461 2318H384L577 1830H654ZM268 1830L318 1958L277 2050L190 1830H268ZM113 1830L267 2222L422 1830H500L307 2318H229L36 1830H113ZM525 1656H597V0H525V1656ZM381 1656H453V0H381V1656ZM237
1656H309V0H237V1656ZM93 1656H165V0H93V1656Z" />
<glyph unicode="&#xcf;" glyph-name="Idieresis" horiz-adv-x="694" d="M759 2054H831V1830H759V2054ZM615 2054H687V1830H615V2054ZM471 2054H543V1830H471V2054ZM145 2054H217V1830H145V2054ZM1 2054H73V1830H1V2054ZM-143 2054H-71V1830H-143V2054ZM525 1656H597V0H525V1656ZM381
1656H453V0H381V1656ZM237 1656H309V0H237V1656ZM93 1656H165V0H93V1656Z" />
<glyph unicode="&#xd0;" glyph-name="Eth" horiz-adv-x="1855" d="M55 648V720H809V648H55ZM55 792V864H809V792H55ZM55 936V1008H809V936H55ZM561 612H633V504H1052Q1141 504 1204 599T1268 828Q1268 963 1205 1057T1052 1152H633V1045H561V1224H1052Q1171 1224
1256 1108T1342 828Q1342 664 1257 548T1052 432H561V612ZM417 612H489V360H1052Q1201 360 1308 497T1416 828Q1416 955 1367 1063T1234 1233T1052 1296H489V1045H417V1368H1052Q1169 1368 1270 1296T1430 1100T1490 828Q1490 682 1431 557T1270 360T1052 288H417V612ZM273
612H345V216H1052Q1189 216 1306 298T1494 521T1564 828Q1564 993 1494 1134T1306 1358T1052 1440H345V1045H273V1512H1052Q1208 1512 1343 1421T1558 1171T1638 828T1558 485T1343 236T1052 144H273V612ZM129 612H201V72H1052Q1183 72 1305 132T1516 293T1658
534T1712 828T1659 1121T1516 1362T1305 1524T1052 1584H201V1045H129V1656H1052Q1247 1656 1416 1545T1685 1243T1786 828Q1786 660 1727 507T1568 242T1334 66T1052 0H129V612Z" />
<glyph unicode="&#xd1;" glyph-name="Ntilde" horiz-adv-x="1798" d="M1292 2190H1364Q1364 2145 1356 2110T1335 2053T1301 2015T1264 1991T1222 1979T1183 1975T1148 1974H645Q616 1974 602 1973T564 1965T530 1943T510 1901T501 1830H429Q429 1875 437 1910T458
1967T492 2005T529 2029T571 2041T610 2045T645 2046H1148Q1177 2046 1191 2047T1229 2055T1263 2077T1283 2119T1292 2190ZM1436 2190H1508Q1508 2132 1500 2084T1480 2000T1447 1938T1406 1893T1357 1863T1306 1844T1251 1835T1199 1831T1148 1830H645V1902H1148Q1180
1902 1196 1902T1242 1905T1287 1913T1326 1928T1363 1952T1393 1988T1417 2038T1430 2104T1436 2190ZM645 2190H1148V2118H645Q613 2118 597 2118T551 2115T506 2107T467 2092T430 2068T400 2032T376 1982T363 1916T357 1830H285Q285 1888 293 1936T313 2020T346
2082T387 2127T436 2157T487 2176T542 2185T594 2189T645 2190ZM1269 797L1197 916V1656H1269V797ZM1413 561L1341 682V1656H1413V561ZM1557 322L1485 444V1656H1557V322ZM525 859L597 740V0H525V859ZM381 1095L453 974V0H381V1095ZM237 1334L309 1212V0H237V1334ZM262
1656H346L1364 0H1280L262 1656ZM432 1656H517L1534 0H1448L432 1656ZM601 1656H685L1629 117V1656H1701V0Q1701 0 1616 0L601 1656ZM165 1539V0H93V1656Q93 1656 179 1656L1194 0H1111L165 1539Z" />
<glyph unicode="&#xd2;" glyph-name="Ograve" horiz-adv-x="1912" d="M1069 1934L1126 1986L459 2312L403 2260L1069 1934ZM955 1830L1012 1882L346 2208L288 2155L955 1830ZM560 992T560 828T676 548T956 432T1236 548T1352 828T1236 1108T956 1224T676 1108ZM488
733T488 828T525 1009T625 1159T774 1259T956 1296T1137 1259T1287 1159T1387 1010T1424 828T1387 647T1287 497T1138 397T956 360T775 397T625 497T525 646ZM416 975T416 828T488 557T685 361T956 288T1227 360T1423 557T1496 828T1424 1099T1227 1295T956 1368T685
1296T489 1099ZM344 662T344 828T426 1135T649 1358T956 1440T1263 1358T1486 1135T1568 828T1486 521T1263 298T956 216T649 298T426 521ZM272 967T272 828T326 562T471 344T690 198T956 144T1222 198T1440 343T1586 562T1640 828T1586 1094T1441 1312T1222 1458T956
1512T690 1458T472 1313T326 1094ZM200 623T200 828T301 1207T577 1482T956 1584T1335 1483T1610 1207T1712 828T1611 449T1335 174T956 72T577 173T302 449ZM128 996T128 828T193 507T370 242T634 66T956 0T1277 65T1542 242T1718 506T1784 828T1719 1149T1542
1414T1278 1590T956 1656T635 1591T370 1414T194 1150ZM56 645T56 828T127 1177T319 1464T606 1656T956 1728T1305 1657T1592 1465T1784 1178T1856 828T1785 479T1593 192T1306 0T956 -72T607 -1T320 191T128 478Z" />
<glyph unicode="&#xd3;" glyph-name="Oacute" horiz-adv-x="1912" d="M842 1934L785 1986L1452 2312L1509 2260L842 1934ZM956 1830L899 1882L1565 2208L1623 2155L956 1830ZM560 992T560 828T676 548T956 432T1236 548T1352 828T1236 1108T956 1224T676 1108ZM488
733T488 828T525 1009T625 1159T774 1259T956 1296T1137 1259T1287 1159T1387 1010T1424 828T1387 647T1287 497T1138 397T956 360T775 397T625 497T525 646ZM416 975T416 828T488 557T685 361T956 288T1227 360T1423 557T1496 828T1424 1099T1227 1295T956 1368T685
1296T489 1099ZM344 662T344 828T426 1135T649 1358T956 1440T1263 1358T1486 1135T1568 828T1486 521T1263 298T956 216T649 298T426 521ZM272 967T272 828T326 562T471 344T690 198T956 144T1222 198T1440 343T1586 562T1640 828T1586 1094T1441 1312T1222 1458T956
1512T690 1458T472 1313T326 1094ZM200 623T200 828T301 1207T577 1482T956 1584T1335 1483T1610 1207T1712 828T1611 449T1335 174T956 72T577 173T302 449ZM128 996T128 828T193 507T370 242T634 66T956 0T1277 65T1542 242T1718 506T1784 828T1719 1149T1542
1414T1278 1590T956 1656T635 1591T370 1414T194 1150ZM56 645T56 828T127 1177T319 1464T606 1656T956 1728T1305 1657T1592 1465T1784 1178T1856 828T1785 479T1593 192T1306 0T956 -72T607 -1T320 191T128 478Z" />
<glyph unicode="&#xd4;" glyph-name="Ocircumflex" horiz-adv-x="1912" d="M1265 1830L1072 2318H995L1188 1830H1265ZM879 1830L929 1958L888 2050L801 1830H879ZM724 1830L878 2222L1033 1830H1111L918 2318H840L647 1830H724ZM560 992T560 828T676 548T956
432T1236 548T1352 828T1236 1108T956 1224T676 1108ZM488 733T488 828T525 1009T625 1159T774 1259T956 1296T1137 1259T1287 1159T1387 1010T1424 828T1387 647T1287 497T1138 397T956 360T775 397T625 497T525 646ZM416 975T416 828T488 557T685 361T956 288T1227
360T1423 557T1496 828T1424 1099T1227 1295T956 1368T685 1296T489 1099ZM344 662T344 828T426 1135T649 1358T956 1440T1263 1358T1486 1135T1568 828T1486 521T1263 298T956 216T649 298T426 521ZM272 967T272 828T326 562T471 344T690 198T956 144T1222 198T1440
343T1586 562T1640 828T1586 1094T1441 1312T1222 1458T956 1512T690 1458T472 1313T326 1094ZM200 623T200 828T301 1207T577 1482T956 1584T1335 1483T1610 1207T1712 828T1611 449T1335 174T956 72T577 173T302 449ZM128 996T128 828T193 507T370 242T634 66T956
0T1277 65T1542 242T1718 506T1784 828T1719 1149T1542 1414T1278 1590T956 1656T635 1591T370 1414T194 1150ZM56 645T56 828T127 1177T319 1464T606 1656T956 1728T1305 1657T1592 1465T1784 1178T1856 828T1785 479T1593 192T1306 0T956 -72T607 -1T320 191T128
478Z" />
<glyph unicode="&#xd5;" glyph-name="Otilde" horiz-adv-x="1912" d="M1352 2190H1424Q1424 2145 1416 2110T1395 2053T1361 2015T1324 1991T1282 1979T1243 1975T1208 1974H705Q676 1974 662 1973T624 1965T590 1943T570 1901T561 1830H489Q489 1875 497 1910T518
1967T552 2005T589 2029T631 2041T670 2045T705 2046H1208Q1237 2046 1251 2047T1289 2055T1323 2077T1343 2119T1352 2190ZM1496 2190H1568Q1568 2132 1560 2084T1540 2000T1507 1938T1466 1893T1417 1863T1366 1844T1311 1835T1259 1831T1208 1830H705V1902H1208Q1240
1902 1256 1902T1302 1905T1347 1913T1386 1928T1423 1952T1453 1988T1477 2038T1490 2104T1496 2190ZM705 2190H1208V2118H705Q673 2118 657 2118T611 2115T566 2107T527 2092T490 2068T460 2032T436 1982T423 1916T417 1830H345Q345 1888 353 1936T373 2020T406
2082T447 2127T496 2157T547 2176T602 2185T654 2189T705 2190ZM560 992T560 828T676 548T956 432T1236 548T1352 828T1236 1108T956 1224T676 1108ZM488 733T488 828T525 1009T625 1159T774 1259T956 1296T1137 1259T1287 1159T1387 1010T1424 828T1387 647T1287
497T1138 397T956 360T775 397T625 497T525 646ZM416 975T416 828T488 557T685 361T956 288T1227 360T1423 557T1496 828T1424 1099T1227 1295T956 1368T685 1296T489 1099ZM344 662T344 828T426 1135T649 1358T956 1440T1263 1358T1486 1135T1568 828T1486 521T1263
298T956 216T649 298T426 521ZM272 967T272 828T326 562T471 344T690 198T956 144T1222 198T1440 343T1586 562T1640 828T1586 1094T1441 1312T1222 1458T956 1512T690 1458T472 1313T326 1094ZM200 623T200 828T301 1207T577 1482T956 1584T1335 1483T1610 1207T1712
828T1611 449T1335 174T956 72T577 173T302 449ZM128 996T128 828T193 507T370 242T634 66T956 0T1277 65T1542 242T1718 506T1784 828T1719 1149T1542 1414T1278 1590T956 1656T635 1591T370 1414T194 1150ZM56 645T56 828T127 1177T319 1464T606 1656T956 1728T1305
1657T1592 1465T1784 1178T1856 828T1785 479T1593 192T1306 0T956 -72T607 -1T320 191T128 478Z" />
<glyph unicode="&#xd6;" glyph-name="Odieresis" horiz-adv-x="1912" d="M1370 2054H1442V1830H1370V2054ZM1226 2054H1298V1830H1226V2054ZM1082 2054H1154V1830H1082V2054ZM756 2054H828V1830H756V2054ZM612 2054H684V1830H612V2054ZM468 2054H540V1830H468V2054ZM560
992T560 828T676 548T956 432T1236 548T1352 828T1236 1108T956 1224T676 1108ZM488 733T488 828T525 1009T625 1159T774 1259T956 1296T1137 1259T1287 1159T1387 1010T1424 828T1387 647T1287 497T1138 397T956 360T775 397T625 497T525 646ZM416 975T416 828T488
557T685 361T956 288T1227 360T1423 557T1496 828T1424 1099T1227 1295T956 1368T685 1296T489 1099ZM344 662T344 828T426 1135T649 1358T956 1440T1263 1358T1486 1135T1568 828T1486 521T1263 298T956 216T649 298T426 521ZM272 967T272 828T326 562T471 344T690
198T956 144T1222 198T1440 343T1586 562T1640 828T1586 1094T1441 1312T1222 1458T956 1512T690 1458T472 1313T326 1094ZM200 623T200 828T301 1207T577 1482T956 1584T1335 1483T1610 1207T1712 828T1611 449T1335 174T956 72T577 173T302 449ZM128 996T128
828T193 507T370 242T634 66T956 0T1277 65T1542 242T1718 506T1784 828T1719 1149T1542 1414T1278 1590T956 1656T635 1591T370 1414T194 1150ZM56 645T56 828T127 1177T319 1464T606 1656T956 1728T1305 1657T1592 1465T1784 1178T1856 828T1785 479T1593 192T1306
0T956 -72T607 -1T320 191T128 478Z" />
<glyph unicode="&#xd7;" glyph-name="multiply" horiz-adv-x="1618" d="M1491 1440H1579L661 0H571L1491 1440ZM1313 1440H1401L482 0H394L1313 1440ZM1135 1440H1224L305 0H216L1135 1440ZM957 1440H1047L127 0H39L957 1440ZM517 829L473 759L39 1440H127L517
829ZM832 197L876 267L1047 0H957L832 197ZM606 968L562 899L217 1440H305L606 968ZM921 337L965 406L1224 0H1136L921 337ZM695 1108L651 1038L394 1440H483L695 1108ZM1009 476L1054 546L1402 0H1313L1009 476ZM784 1247L739 1177L571 1440H661L784 1247ZM1098
615L1143 684L1579 0H1491L1098 615Z" />
<glyph unicode="&#xd8;" glyph-name="Oslash" horiz-adv-x="1923" d="M559 992T559 828T675 548T955 432T1235 548T1351 828T1235 1108T955 1224T675 1108ZM487 733T487 828T524 1009T624 1159T773 1259T955 1296T1136 1259T1286 1159T1386 1010T1423 828T1386
647T1286 497T1137 397T955 360T774 397T624 497T524 646ZM415 975T415 828T487 557T684 361T955 288T1226 360T1422 557T1495 828T1423 1099T1226 1295T955 1368T684 1296T488 1099ZM343 662T343 828T425 1135T648 1358T955 1440T1262 1358T1485 1135T1567 828T1485
521T1262 298T955 216T648 298T425 521ZM271 967T271 828T325 562T470 344T689 198T955 144T1221 198T1439 343T1585 562T1639 828T1585 1094T1440 1312T1221 1458T955 1512T689 1458T471 1313T325 1094ZM199 623T199 828T300 1207T576 1482T955 1584T1334 1483T1609
1207T1711 828T1610 449T1334 174T955 72T576 173T301 449ZM127 996T127 828T192 507T369 242T633 66T955 0T1276 65T1541 242T1717 506T1783 828T1718 1149T1541 1414T1277 1590T955 1656T634 1591T369 1414T193 1150ZM55 645T55 828T126 1177T318 1464T605 1656T955
1728T1304 1657T1591 1465T1783 1178T1855 828T1784 479T1592 192T1305 0T955 -72T606 -1T319 191T127 478ZM1538 1561L1479 1604L1589 1815L1653 1782L1538 1561ZM618 -52L688 -74L556 -328L492 -295L618 -52ZM1421 1648L1357 1681L1461 1881L1525 1848L1421 1648ZM489
10L553 -24L429 -262L365 -229L489 10ZM1290 1709L1220 1731L1333 1948L1397 1915L1290 1709ZM366 87L425 44L301 -195L237 -162L366 87Z" />
<glyph unicode="&#xd9;" glyph-name="Ugrave" horiz-adv-x="1854" d="M1036 1934L1093 1986L426 2312L370 2260L1036 1934ZM922 1830L979 1882L313 2208L255 2155L922 1830ZM1259 728V1656H1331V728Q1331 576 1211 468T923 360T635 468T515 728V1656H587V728Q587
606 685 519T923 432T1160 519T1259 728ZM1403 728V1656H1475V728Q1475 624 1431 530T1313 366T1137 257T923 216T709 256T533 366T415 529T371 728V1656H443V728Q443 609 507 508T682 347T923 288T1163 347T1338 507T1403 728ZM1547 728V1656H1619V728Q1619 595
1564 474T1415 264T1193 124T923 72T653 124T431 264T283 473T227 728V1656H299V728Q299 570 383 436T610 223T923 144T1235 222T1463 435T1547 728ZM1691 728V1656H1763V728Q1763 512 1650 328T1344 36T923 -72T503 35T196 327T83 728V1656H155V728Q155 581 216
446T380 214T625 58T923 0T1220 58T1466 213T1630 446T1691 728Z" />
<glyph unicode="&#xda;" glyph-name="Uacute" horiz-adv-x="1854" d="M809 1934L752 1986L1419 2312L1476 2260L809 1934ZM923 1830L866 1882L1532 2208L1590 2155L923 1830ZM1259 728V1656H1331V728Q1331 576 1211 468T923 360T635 468T515 728V1656H587V728Q587
606 685 519T923 432T1160 519T1259 728ZM1403 728V1656H1475V728Q1475 624 1431 530T1313 366T1137 257T923 216T709 256T533 366T415 529T371 728V1656H443V728Q443 609 507 508T682 347T923 288T1163 347T1338 507T1403 728ZM1547 728V1656H1619V728Q1619 595
1564 474T1415 264T1193 124T923 72T653 124T431 264T283 473T227 728V1656H299V728Q299 570 383 436T610 223T923 144T1235 222T1463 435T1547 728ZM1691 728V1656H1763V728Q1763 512 1650 328T1344 36T923 -72T503 35T196 327T83 728V1656H155V728Q155 581 216
446T380 214T625 58T923 0T1220 58T1466 213T1630 446T1691 728Z" />
<glyph unicode="&#xdb;" glyph-name="Ucircumflex" horiz-adv-x="1854" d="M1232 1830L1039 2318H962L1155 1830H1232ZM846 1830L896 1958L855 2050L768 1830H846ZM691 1830L845 2222L1000 1830H1078L885 2318H807L614 1830H691ZM1259 728V1656H1331V728Q1331
576 1211 468T923 360T635 468T515 728V1656H587V728Q587 606 685 519T923 432T1160 519T1259 728ZM1403 728V1656H1475V728Q1475 624 1431 530T1313 366T1137 257T923 216T709 256T533 366T415 529T371 728V1656H443V728Q443 609 507 508T682 347T923 288T1163
347T1338 507T1403 728ZM1547 728V1656H1619V728Q1619 595 1564 474T1415 264T1193 124T923 72T653 124T431 264T283 473T227 728V1656H299V728Q299 570 383 436T610 223T923 144T1235 222T1463 435T1547 728ZM1691 728V1656H1763V728Q1763 512 1650 328T1344 36T923
-72T503 35T196 327T83 728V1656H155V728Q155 581 216 446T380 214T625 58T923 0T1220 58T1466 213T1630 446T1691 728Z" />
<glyph unicode="&#xdc;" glyph-name="Udieresis" horiz-adv-x="1854" d="M1337 2054H1409V1830H1337V2054ZM1193 2054H1265V1830H1193V2054ZM1049 2054H1121V1830H1049V2054ZM723 2054H795V1830H723V2054ZM579 2054H651V1830H579V2054ZM435 2054H507V1830H435V2054ZM1259
728V1656H1331V728Q1331 576 1211 468T923 360T635 468T515 728V1656H587V728Q587 606 685 519T923 432T1160 519T1259 728ZM1403 728V1656H1475V728Q1475 624 1431 530T1313 366T1137 257T923 216T709 256T533 366T415 529T371 728V1656H443V728Q443 609 507 508T682
347T923 288T1163 347T1338 507T1403 728ZM1547 728V1656H1619V728Q1619 595 1564 474T1415 264T1193 124T923 72T653 124T431 264T283 473T227 728V1656H299V728Q299 570 383 436T610 223T923 144T1235 222T1463 435T1547 728ZM1691 728V1656H1763V728Q1763 512
1650 328T1344 36T923 -72T503 35T196 327T83 728V1656H155V728Q155 581 216 446T380 214T625 58T923 0T1220 58T1466 213T1630 446T1691 728Z" />
<glyph unicode="&#xdd;" glyph-name="Yacute" horiz-adv-x="1616" d="M694 1934L637 1986L1304 2312L1361 2260L694 1934ZM808 1830L751 1882L1417 2208L1475 2155L808 1830ZM647 833L611 754L179 1656H251L647 833ZM719 991L682 912L323 1656H395L719 991ZM791
1148L755 1069L467 1656H539L791 1148ZM700 558L1221 1656H1293L772 558V0H700V558ZM844 558L1365 1656H1437L916 558V0H844V558ZM988 558L1509 1656H1581L1060 558V0H988V558ZM592 634L1077 1656H1149L628 558V0H556V558L35 1656H107L592 634Z" />
<glyph unicode="&#xde;" glyph-name="Thorn" horiz-adv-x="1635" d="M631 559V633Q700 624 855 624Q940 624 1001 685T1063 832T1002 979T855 1040Q745 1040 598 1029V-144H526V1728H598V1540Q758 1544 855 1544Q999 1544 1131 1488T1358 1336T1510 1108T1567
832T1511 556T1359 329T1131 177T855 120Q700 120 631 122V195Q735 192 855 192Q1028 192 1175 278T1409 511T1495 832Q1495 962 1444 1080T1307 1284T1103 1421T855 1472Q798 1472 598 1467V1395Q731 1400 855 1400Q1008 1400 1139 1324T1346 1116T1423 832T1347
548T1140 341T855 264T631 267V340Q723 336 855 336Q989 336 1103 402T1284 583T1351 832T1284 1080T1103 1261T855 1328Q758 1328 598 1322V1250Q758 1256 855 1256Q1030 1256 1154 1132T1279 832T1155 533T855 408Q723 408 631 412V485Q717 480 855 480Q1000
480 1103 583T1207 832Q1207 977 1104 1080T855 1184T598 1177V1104Q678 1112 855 1112Q970 1112 1052 1030T1135 832Q1135 717 1053 635T855 552Q728 552 631 559ZM382 1728H454V-144H382V1728ZM238 1728H310V-144H238V1728ZM94 1728H166V-144H94V1728Z" />
<glyph unicode="&#xdf;" glyph-name="germandbls" horiz-adv-x="1692" d="M682 1296H994Q1062 1296 1110 1255T1158 1151Q1158 1069 1113 1033T994 996H630V1068H994Q1086 1068 1086 1151Q1086 1185 1060 1204T994 1224H682Q642 1224 616 1205T590 1151V-144H518V1151Q518
1213 566 1254T682 1296ZM1126 607Q1126 671 1093 692T994 714H630V786H994Q1198 786 1198 607Q1198 514 1142 473T994 432H630V504H994Q1057 504 1091 527T1126 607ZM994 1368H682Q589 1368 518 1303T446 1151V-144H374V1151Q374 1267 466 1353T682 1440H994Q1117
1440 1209 1354T1302 1151Q1302 1060 1260 992T1145 887Q1342 821 1342 617Q1342 469 1240 379T994 288H630V360H994Q1109 360 1189 427T1270 617Q1270 706 1208 773T1025 853Q1015 852 994 852H630V924H994Q1093 924 1161 983T1230 1151Q1230 1238 1159 1303T994
1368ZM994 1512H682Q530 1512 416 1405T302 1151V-144H230V1151Q230 1266 292 1366T458 1525T682 1584H994Q1113 1584 1217 1526T1384 1367T1446 1151Q1446 1011 1347 898Q1486 767 1486 617Q1486 484 1418 375T1237 205T994 144H630V216H994Q1105 216 1200 265T1355
408T1414 617Q1414 686 1375 769T1263 895Q1374 999 1374 1151Q1374 1297 1260 1404T994 1512ZM994 1656H682Q543 1656 422 1588T230 1403T158 1151V-144H86V1151Q86 1305 167 1438T386 1650T682 1728H994Q1152 1728 1289 1650T1508 1439T1590 1151Q1590 1004 1507
893Q1630 757 1630 617Q1630 431 1542 289T1310 73T994 0H630V72H994Q1144 72 1273 142T1480 339T1558 617Q1558 673 1525 753T1429 894Q1518 1013 1518 1151Q1518 1286 1447 1402T1254 1587T994 1656Z" />
<glyph unicode="&#xe0;" glyph-name="agrave" horiz-adv-x="1704" d="M940 1718L997 1770L330 2096L274 2044L940 1718ZM826 1614L883 1666L217 1992L159 1939L826 1614ZM1115 710Q1115 838 1036 908T827 978Q717 978 638 902T559 720Q559 660 575 613T618 534T684
482T763 452T852 443Q966 443 1060 499V427Q963 376 851 376Q779 376 716 395T600 454T518 562T487 720Q487 858 584 954T827 1050Q988 1050 1087 960T1187 710V0H1115V710ZM1331 710V0H1259V710Q1259 899 1138 1010T827 1122Q651 1122 533 1005T415 720Q415 618
450 537T547 407T683 333T843 307Q957 307 1060 360V284Q952 239 842 239Q743 239 654 269T495 358T384 510T343 720Q343 917 482 1055T827 1194Q971 1194 1085 1136T1265 966T1331 710ZM1475 710V0H1403V710Q1403 875 1328 1002T1121 1198T827 1266Q672 1266 544
1193T344 994T271 720Q271 592 318 487T444 313T625 208T838 170Q951 170 1060 217V144Q946 101 836 101Q663 101 518 179T286 400T199 720Q199 846 247 960T379 1157T579 1289T827 1338Q1010 1338 1157 1260T1390 1038T1475 710ZM1619 710V0H1547V710Q1547 914
1452 1074T1193 1322T827 1410Q633 1410 472 1317T219 1066T127 720Q127 597 166 487T274 294T432 151T625 60T836 29Q954 29 1060 74V0Q949 -39 832 -39Q711 -39 597 -5T385 95T213 252T97 464T55 720Q55 875 113 1015T273 1258T519 1421T827 1482Q993 1482 1139
1426T1391 1271T1558 1026T1619 710Z" />
<glyph unicode="&#xe1;" glyph-name="aacute" horiz-adv-x="1704" d="M713 1718L656 1770L1323 2096L1380 2044L713 1718ZM827 1614L770 1666L1436 1992L1494 1939L827 1614ZM1115 710Q1115 838 1036 908T827 978Q717 978 638 902T559 720Q559 660 575 613T618
534T684 482T763 452T852 443Q966 443 1060 499V427Q963 376 851 376Q779 376 716 395T600 454T518 562T487 720Q487 858 584 954T827 1050Q988 1050 1087 960T1187 710V0H1115V710ZM1331 710V0H1259V710Q1259 899 1138 1010T827 1122Q651 1122 533 1005T415 720Q415
618 450 537T547 407T683 333T843 307Q957 307 1060 360V284Q952 239 842 239Q743 239 654 269T495 358T384 510T343 720Q343 917 482 1055T827 1194Q971 1194 1085 1136T1265 966T1331 710ZM1475 710V0H1403V710Q1403 875 1328 1002T1121 1198T827 1266Q672 1266
544 1193T344 994T271 720Q271 592 318 487T444 313T625 208T838 170Q951 170 1060 217V144Q946 101 836 101Q663 101 518 179T286 400T199 720Q199 846 247 960T379 1157T579 1289T827 1338Q1010 1338 1157 1260T1390 1038T1475 710ZM1619 710V0H1547V710Q1547
914 1452 1074T1193 1322T827 1410Q633 1410 472 1317T219 1066T127 720Q127 597 166 487T274 294T432 151T625 60T836 29Q954 29 1060 74V0Q949 -39 832 -39Q711 -39 597 -5T385 95T213 252T97 464T55 720Q55 875 113 1015T273 1258T519 1421T827 1482Q993 1482
1139 1426T1391 1271T1558 1026T1619 710Z" />
<glyph unicode="&#xe2;" glyph-name="acircumflex" horiz-adv-x="1704" d="M1136 1614L943 2102H866L1059 1614H1136ZM750 1614L800 1742L759 1834L672 1614H750ZM595 1614L749 2006L904 1614H982L789 2102H711L518 1614H595ZM1115 710Q1115 838 1036 908T827
978Q717 978 638 902T559 720Q559 660 575 613T618 534T684 482T763 452T852 443Q966 443 1060 499V427Q963 376 851 376Q779 376 716 395T600 454T518 562T487 720Q487 858 584 954T827 1050Q988 1050 1087 960T1187 710V0H1115V710ZM1331 710V0H1259V710Q1259
899 1138 1010T827 1122Q651 1122 533 1005T415 720Q415 618 450 537T547 407T683 333T843 307Q957 307 1060 360V284Q952 239 842 239Q743 239 654 269T495 358T384 510T343 720Q343 917 482 1055T827 1194Q971 1194 1085 1136T1265 966T1331 710ZM1475 710V0H1403V710Q1403
875 1328 1002T1121 1198T827 1266Q672 1266 544 1193T344 994T271 720Q271 592 318 487T444 313T625 208T838 170Q951 170 1060 217V144Q946 101 836 101Q663 101 518 179T286 400T199 720Q199 846 247 960T379 1157T579 1289T827 1338Q1010 1338 1157 1260T1390
1038T1475 710ZM1619 710V0H1547V710Q1547 914 1452 1074T1193 1322T827 1410Q633 1410 472 1317T219 1066T127 720Q127 597 166 487T274 294T432 151T625 60T836 29Q954 29 1060 74V0Q949 -39 832 -39Q711 -39 597 -5T385 95T213 252T97 464T55 720Q55 875 113
1015T273 1258T519 1421T827 1482Q993 1482 1139 1426T1391 1271T1558 1026T1619 710Z" />
<glyph unicode="&#xe3;" glyph-name="atilde" horiz-adv-x="1704" d="M1222 1974H1294Q1294 1929 1286 1894T1265 1837T1231 1799T1194 1775T1152 1763T1113 1759T1078 1758H575Q546 1758 532 1757T494 1749T460 1727T440 1685T431 1614H359Q359 1659 367 1694T388
1751T422 1789T459 1813T501 1825T540 1829T575 1830H1078Q1107 1830 1121 1831T1159 1839T1193 1861T1213 1903T1222 1974ZM1366 1974H1438Q1438 1916 1430 1868T1410 1784T1377 1722T1336 1677T1287 1647T1236 1628T1181 1619T1129 1615T1078 1614H575V1686H1078Q1110
1686 1126 1686T1172 1689T1217 1697T1256 1712T1293 1736T1323 1772T1347 1822T1360 1888T1366 1974ZM575 1974H1078V1902H575Q543 1902 527 1902T481 1899T436 1891T397 1876T360 1852T330 1816T306 1766T293 1700T287 1614H215Q215 1672 223 1720T243 1804T276
1866T317 1911T366 1941T417 1960T472 1969T524 1973T575 1974ZM1115 710Q1115 838 1036 908T827 978Q717 978 638 902T559 720Q559 660 575 613T618 534T684 482T763 452T852 443Q966 443 1060 499V427Q963 376 851 376Q779 376 716 395T600 454T518 562T487 720Q487
858 584 954T827 1050Q988 1050 1087 960T1187 710V0H1115V710ZM1331 710V0H1259V710Q1259 899 1138 1010T827 1122Q651 1122 533 1005T415 720Q415 618 450 537T547 407T683 333T843 307Q957 307 1060 360V284Q952 239 842 239Q743 239 654 269T495 358T384 510T343
720Q343 917 482 1055T827 1194Q971 1194 1085 1136T1265 966T1331 710ZM1475 710V0H1403V710Q1403 875 1328 1002T1121 1198T827 1266Q672 1266 544 1193T344 994T271 720Q271 592 318 487T444 313T625 208T838 170Q951 170 1060 217V144Q946 101 836 101Q663
101 518 179T286 400T199 720Q199 846 247 960T379 1157T579 1289T827 1338Q1010 1338 1157 1260T1390 1038T1475 710ZM1619 710V0H1547V710Q1547 914 1452 1074T1193 1322T827 1410Q633 1410 472 1317T219 1066T127 720Q127 597 166 487T274 294T432 151T625 60T836
29Q954 29 1060 74V0Q949 -39 832 -39Q711 -39 597 -5T385 95T213 252T97 464T55 720Q55 875 113 1015T273 1258T519 1421T827 1482Q993 1482 1139 1426T1391 1271T1558 1026T1619 710Z" />
<glyph unicode="&#xe4;" glyph-name="adieresis" horiz-adv-x="1704" d="M1241 1838H1313V1614H1241V1838ZM1097 1838H1169V1614H1097V1838ZM953 1838H1025V1614H953V1838ZM627 1838H699V1614H627V1838ZM483 1838H555V1614H483V1838ZM339 1838H411V1614H339V1838ZM1115
710Q1115 838 1036 908T827 978Q717 978 638 902T559 720Q559 660 575 613T618 534T684 482T763 452T852 443Q966 443 1060 499V427Q963 376 851 376Q779 376 716 395T600 454T518 562T487 720Q487 858 584 954T827 1050Q988 1050 1087 960T1187 710V0H1115V710ZM1331
710V0H1259V710Q1259 899 1138 1010T827 1122Q651 1122 533 1005T415 720Q415 618 450 537T547 407T683 333T843 307Q957 307 1060 360V284Q952 239 842 239Q743 239 654 269T495 358T384 510T343 720Q343 917 482 1055T827 1194Q971 1194 1085 1136T1265 966T1331
710ZM1475 710V0H1403V710Q1403 875 1328 1002T1121 1198T827 1266Q672 1266 544 1193T344 994T271 720Q271 592 318 487T444 313T625 208T838 170Q951 170 1060 217V144Q946 101 836 101Q663 101 518 179T286 400T199 720Q199 846 247 960T379 1157T579 1289T827
1338Q1010 1338 1157 1260T1390 1038T1475 710ZM1619 710V0H1547V710Q1547 914 1452 1074T1193 1322T827 1410Q633 1410 472 1317T219 1066T127 720Q127 597 166 487T274 294T432 151T625 60T836 29Q954 29 1060 74V0Q949 -39 832 -39Q711 -39 597 -5T385 95T213
252T97 464T55 720Q55 875 113 1015T273 1258T519 1421T827 1482Q993 1482 1139 1426T1391 1271T1558 1026T1619 710Z" />
<glyph unicode="&#xe5;" glyph-name="aring" horiz-adv-x="1704" d="M624 1970T624 1882T686 1732T837 1669T987 1731T1050 1882T988 2032T837 2095T687 2033ZM565 1770T565 1882T644 2072T837 2150T1029 2072T1109 1882T1030 1692T837 1614T645 1692ZM734 1925T734
1882T764 1809T837 1779T910 1809T940 1882T910 1955T837 1985T764 1955ZM675 1817T675 1882T722 1993T837 2040T951 1994T999 1882T952 1771T837 1724T723 1770ZM1115 710Q1115 838 1036 908T827 978Q717 978 638 902T559 720Q559 660 575 613T618 534T684 482T763
452T852 443Q966 443 1060 499V427Q963 376 851 376Q779 376 716 395T600 454T518 562T487 720Q487 858 584 954T827 1050Q988 1050 1087 960T1187 710V0H1115V710ZM1331 710V0H1259V710Q1259 899 1138 1010T827 1122Q651 1122 533 1005T415 720Q415 618 450 537T547
407T683 333T843 307Q957 307 1060 360V284Q952 239 842 239Q743 239 654 269T495 358T384 510T343 720Q343 917 482 1055T827 1194Q971 1194 1085 1136T1265 966T1331 710ZM1475 710V0H1403V710Q1403 875 1328 1002T1121 1198T827 1266Q672 1266 544 1193T344
994T271 720Q271 592 318 487T444 313T625 208T838 170Q951 170 1060 217V144Q946 101 836 101Q663 101 518 179T286 400T199 720Q199 846 247 960T379 1157T579 1289T827 1338Q1010 1338 1157 1260T1390 1038T1475 710ZM1619 710V0H1547V710Q1547 914 1452 1074T1193
1322T827 1410Q633 1410 472 1317T219 1066T127 720Q127 597 166 487T274 294T432 151T625 60T836 29Q954 29 1060 74V0Q949 -39 832 -39Q711 -39 597 -5T385 95T213 252T97 464T55 720Q55 875 113 1015T273 1258T519 1421T827 1482Q993 1482 1139 1426T1391 1271T1558
1026T1619 710Z" />
<glyph unicode="&#xe6;" glyph-name="ae" horiz-adv-x="2389" d="M1475 710V0H1403Q1403 0 1403 710Q1403 875 1328 1002T1121 1198T827 1266Q672 1266 544 1193T344 994T271 720Q271 592 318 487T444 313T625 208T838 170Q951 170 1060 217V144Q946 101 836 101Q663
101 518 179T286 400T199 720Q199 846 247 960T379 1157T579 1289T827 1338Q1010 1338 1157 1260T1390 1038T1475 710ZM1331 710V0H1259V710Q1259 899 1138 1010T827 1122Q651 1122 533 1005T415 720Q415 618 450 537T547 407T683 333T843 307Q957 307 1060 360V284Q952
239 842 239Q743 239 654 269T495 358T384 510T343 720Q343 917 482 1055T827 1194Q971 1194 1085 1136T1265 966T1331 710ZM1115 710Q1115 838 1036 908T827 978Q717 978 638 902T559 720Q559 660 575 613T618 534T684 482T763 452T852 443Q966 443 1060 499V427Q963
376 851 376Q779 376 716 395T600 454T518 562T487 720Q487 858 584 954T827 1050Q988 1050 1087 960T1187 710V0H1115V710ZM1620 360H2308V288H1620V216H2308V144H1620V72H2308V0H1619H1548H1547V710Q1547 914 1452 1074T1193 1322T827 1410Q633 1410 472 1317T219
1066T127 720Q127 597 166 487T274 294T432 151T625 60T836 29Q954 29 1060 74V0Q949 -39 832 -39Q711 -39 597 -5T385 95T213 252T97 464T55 720Q55 875 113 1015T273 1258T519 1421T827 1482Q896 1482 962 1472T1090 1443T1208 1397T1315 1333T1408 1254T1486
1159T1548 1051V1440H2308V1368H1620V1296H2308V1224H1620V1152H2308V1080H1620V901H2268V829H1620V757H2268V685H1620V613H2268V541H1620V360ZM1260 1402L1332 1361V1440H1260V1402ZM1476 1225L1404 1302V1440H1476V1225Z" />
<glyph unicode="&#xe7;" glyph-name="ccedilla" horiz-adv-x="1509" d="M636 -434T636 -410T637 -372T647 -333T674 -293T726 -266T812 -254H884V-50H956V-326H812Q775 -326 753 -332T721 -353T710 -378T708 -410T710 -441T721 -466T752 -487T812 -494H956V-566H812Q762
-566 727 -554T674 -528T648 -488T637 -448ZM492 -410Q492 -369 494 -339T511 -265T550 -193T623 -143T740 -121V-50H812V-182Q746 -182 700 -193T627 -222T587 -271T568 -333T564 -410Q564 -441 564 -459T569 -504T583 -548T610 -583T654 -613T720 -631T812 -638H956V-710H812Q760
-710 717 -704T643 -687T588 -659T548 -625T521 -584T505 -542T496 -496T493 -453T492 -410ZM1129 944L1071 900Q984 1008 847 1008Q728 1008 644 924T559 720T643 517T847 432Q914 432 972 461T1072 541L1128 494Q1078 431 1004 396T847 360Q698 360 593 465T487
720T592 974T847 1080Q931 1080 1005 1044T1129 944ZM1241 1034L1184 990Q1124 1066 1036 1109T847 1152Q668 1152 542 1025T415 720T541 415T847 288Q947 288 1036 331T1185 451L1240 405Q1170 317 1067 267T847 216Q710 216 594 283T411 467T343 720T410 973T594
1156T847 1224Q964 1224 1067 1174T1241 1034ZM1354 1124L1298 1079Q1217 1180 1099 1238T847 1296Q730 1296 624 1251T440 1128T317 944T271 720T316 497T439 313T623 190T847 144Q981 144 1099 202T1298 361L1352 314Q1261 201 1129 137T847 72Q715 72 595 123T389
261T251 468T199 720T250 972T388 1178T595 1316T847 1368Q998 1368 1130 1303T1354 1124ZM1466 1214L1408 1171Q1307 1296 1161 1368T847 1440Q701 1440 568 1383T338 1230T184 1000T127 720T184 441T337 211T567 57T847 0Q1014 0 1160 72T1408 269L1465 225Q1354
87 1193 8T847 -72Q686 -72 540 -9T287 160T118 412T55 720T118 1027T287 1280T539 1449T847 1512Q1031 1512 1193 1433T1466 1214Z" />
<glyph unicode="&#xe8;" glyph-name="egrave" horiz-adv-x="1366" d="M802 1718L859 1770L192 2096L136 2044L802 1718ZM688 1614L745 1666L79 1992L21 1939L688 1614ZM453 0H381V1440H453V0ZM309 0H237V1440H309V0ZM165 0H93V1440H165V0ZM597 360H1286V288H597V216H1286V144H597V72H1286V0H525V1440H1286V1368H597V1296H1286V1224H597V1152H1286V1080H597V901H1246V829H597V757H1246V685H597V613H1246V541H597V360Z"
/>
<glyph unicode="&#xe9;" glyph-name="eacute" horiz-adv-x="1366" d="M575 1718L518 1770L1185 2096L1242 2044L575 1718ZM689 1614L632 1666L1298 1992L1356 1939L689 1614ZM453 0H381V1440H453V0ZM309 0H237V1440H309V0ZM165 0H93V1440H165V0ZM597 360H1286V288H597V216H1286V144H597V72H1286V0H525V1440H1286V1368H597V1296H1286V1224H597V1152H1286V1080H597V901H1246V829H597V757H1246V685H597V613H1246V541H597V360Z"
/>
<glyph unicode="&#xea;" glyph-name="ecircumflex" horiz-adv-x="1366" d="M999 1614L806 2102H729L922 1614H999ZM613 1614L663 1742L622 1834L535 1614H613ZM458 1614L612 2006L767 1614H845L652 2102H574L381 1614H458ZM453 0H381V1440H453V0ZM309 0H237V1440H309V0ZM165
0H93V1440H165V0ZM597 360H1286V288H597V216H1286V144H597V72H1286V0H525V1440H1286V1368H597V1296H1286V1224H597V1152H1286V1080H597V901H1246V829H597V757H1246V685H597V613H1246V541H597V360Z" />
<glyph unicode="&#xeb;" glyph-name="edieresis" horiz-adv-x="1366" d="M1103 1838H1175V1614H1103V1838ZM959 1838H1031V1614H959V1838ZM815 1838H887V1614H815V1838ZM489 1838H561V1614H489V1838ZM345 1838H417V1614H345V1838ZM201 1838H273V1614H201V1838ZM453
0H381V1440H453V0ZM309 0H237V1440H309V0ZM165 0H93V1440H165V0ZM597 360H1286V288H597V216H1286V144H597V72H1286V0H525V1440H1286V1368H597V1296H1286V1224H597V1152H1286V1080H597V901H1246V829H597V757H1246V685H597V613H1246V541H597V360Z" />
<glyph unicode="&#xec;" glyph-name="igrave" horiz-adv-x="692" d="M458 1718L515 1770L-152 2096L-208 2044L458 1718ZM344 1614L401 1666L-265 1992L-323 1939L344 1614ZM525 1440H597V0H525V1440ZM381 1440H453V0H381V1440ZM237 1440H309V0H237V1440ZM93 1440H165V0H93V1440Z"
/>
<glyph unicode="&#xed;" glyph-name="iacute" horiz-adv-x="692" d="M231 1718L174 1770L841 2096L898 2044L231 1718ZM345 1614L288 1666L954 1992L1012 1939L345 1614ZM525 1440H597V0H525V1440ZM381 1440H453V0H381V1440ZM237 1440H309V0H237V1440ZM93 1440H165V0H93V1440Z"
/>
<glyph unicode="&#xee;" glyph-name="icircumflex" horiz-adv-x="692" d="M910 1614L717 2102H640L833 1614H910ZM524 1614L574 1742L533 1834L446 1614H524ZM369 1614L523 2006L678 1614H756L563 2102H485L292 1614H369ZM525 1440H597V0H525V1440ZM381 1440H453V0H381V1440ZM237
1440H309V0H237V1440ZM93 1440H165V0H93V1440Z" />
<glyph unicode="&#xef;" glyph-name="idieresis" horiz-adv-x="692" d="M759 1838H831V1614H759V1838ZM615 1838H687V1614H615V1838ZM471 1838H543V1614H471V1838ZM145 1838H217V1614H145V1838ZM1 1838H73V1614H1V1838ZM-143 1838H-71V1614H-143V1838ZM525 1440H597V0H525V1440ZM381
1440H453V0H381V1440ZM237 1440H309V0H237V1440ZM93 1440H165V0H93V1440Z" />
<glyph unicode="&#xf0;" glyph-name="eth" horiz-adv-x="1605" d="M1524 1035Q1524 1035 1524 601Q1524 444 1464 316T1298 103T1053 -26T752 -71Q608 -71 480 -29T256 86T106 268T50 501Q50 621 102 723T240 894T440 1001T677 1040Q827 1040 965 1011V947Q831
972 681 972Q575 972 475 939T296 846T170 697T122 501Q122 390 172 296T307 137T507 37T752 1Q868 1 972 25T1164 100T1316 221T1416 389T1452 601V1035Q1452 1182 1399 1301T1252 1496T1036 1614T772 1656Q603 1656 457 1606T211 1463L153 1506Q262 1611 423
1669T772 1728Q927 1728 1064 1680T1303 1544T1464 1325T1524 1035ZM1380 1035V601Q1380 473 1331 372T1195 206T996 107T752 73Q598 73 472 124T270 274T194 501Q194 672 336 786T681 900Q809 900 965 877V814Q823 831 683 831Q571 831 478 794T325 681T266 501Q266
393 332 311T507 187T752 145Q869 145 968 173T1144 256T1264 399T1308 601V1035Q1308 1148 1266 1239T1151 1390T980 1480T772 1512Q636 1512 519 1476T321 1371L265 1416Q354 1496 486 1540T772 1584Q898 1584 1008 1548T1201 1444T1332 1271T1380 1035ZM1236
1035V601Q1236 502 1198 427T1093 307T940 240T752 217Q636 217 544 249T395 346T338 501Q338 623 439 692T687 762Q815 762 965 747V681Q825 694 688 694Q572 694 491 644T410 501Q410 401 507 345T752 289Q841 289 913 305T1043 357T1132 455T1164 601V1035Q1164
1195 1054 1281T772 1368Q554 1368 435 1282L378 1326Q518 1440 772 1440Q903 1440 1006 1397T1172 1260T1236 1035ZM1092 1035V601Q1092 545 1074 503T1026 434T952 391T859 368T752 361Q633 361 558 396T482 501Q482 545 513 574T591 614T696 625Q884 625 965
614V552Q853 558 697 558Q554 558 554 501Q554 433 752 433Q802 433 836 436T908 448T968 476T1005 525T1020 601V1035Q1020 1135 952 1179T772 1224Q613 1224 548 1192L490 1236Q587 1296 772 1296Q913 1296 1002 1231T1092 1035Z" />
<glyph unicode="&#xf1;" glyph-name="ntilde" horiz-adv-x="1612" d="M1200 1974H1272Q1272 1929 1264 1894T1243 1837T1209 1799T1172 1775T1130 1763T1091 1759T1056 1758H553Q524 1758 510 1757T472 1749T438 1727T418 1685T409 1614H337Q337 1659 345 1694T366
1751T400 1789T437 1813T479 1825T518 1829T553 1830H1056Q1085 1830 1099 1831T1137 1839T1171 1861T1191 1903T1200 1974ZM1344 1974H1416Q1416 1916 1408 1868T1388 1784T1355 1722T1314 1677T1265 1647T1214 1628T1159 1619T1107 1615T1056 1614H553V1686H1056Q1088
1686 1104 1686T1150 1689T1195 1697T1234 1712T1271 1736T1301 1772T1325 1822T1338 1888T1344 1974ZM553 1974H1056V1902H553Q521 1902 505 1902T459 1899T414 1891T375 1876T338 1852T308 1816T284 1766T271 1700T265 1614H193Q193 1672 201 1720T221 1804T254
1866T295 1911T344 1941T395 1960T450 1969T502 1973T553 1974ZM1229 581L1157 712V1440H1229V581ZM1373 332L1301 454V1440H1373V332ZM381 859L453 728V0H381V859ZM237 1118L309 986V0H237V1118ZM262 1440H346L1180 0H1096L262 1440ZM432 1440H517L1350 0H1264L432
1440ZM601 1440H685L1445 125V1440H1517V0H1432L601 1440ZM165 1316V0H93V1440H179L1010 0H927L165 1316Z" />
<glyph unicode="&#xf2;" glyph-name="ograve" horiz-adv-x="1707" d="M960 1718L1017 1770L350 2096L294 2044L960 1718ZM846 1614L903 1666L237 1992L179 1939L846 1614ZM559 839T559 720T643 517T847 432T1050 516T1135 720T1051 923T847 1008T644 924ZM487
571T487 720T592 974T847 1080T1101 975T1207 720T1102 466T847 360T593 465ZM415 898T415 720T541 415T847 288T1152 415T1279 720T1153 1025T847 1152T542 1025ZM343 583T343 720T410 973T594 1156T847 1224T1100 1157T1283 973T1351 720T1284 467T1100 284T847
216T594 283T411 467ZM271 837T271 720T316 497T439 313T623 190T847 144T1070 189T1254 312T1377 496T1423 720T1378 943T1255 1127T1071 1250T847 1296T624 1251T440 1128T317 944ZM199 588T199 720T250 972T388 1178T595 1316T847 1368T1099 1317T1305 1179T1443
972T1495 720T1444 468T1306 262T1099 124T847 72T595 123T389 261T251 468ZM127 866T127 720T184 441T337 211T567 57T847 0T1126 57T1356 210T1510 440T1567 720T1510 999T1357 1229T1127 1383T847 1440T568 1383T338 1230T184 1000ZM55 559T55 720T118 1027T287
1280T539 1449T847 1512T1154 1449T1407 1280T1576 1028T1639 720T1576 413T1407 160T1155 -9T847 -72T540 -9T287 160T118 412Z" />
<glyph unicode="&#xf3;" glyph-name="oacute" horiz-adv-x="1707" d="M733 1718L676 1770L1343 2096L1400 2044L733 1718ZM847 1614L790 1666L1456 1992L1514 1939L847 1614ZM559 839T559 720T643 517T847 432T1050 516T1135 720T1051 923T847 1008T644 924ZM487
571T487 720T592 974T847 1080T1101 975T1207 720T1102 466T847 360T593 465ZM415 898T415 720T541 415T847 288T1152 415T1279 720T1153 1025T847 1152T542 1025ZM343 583T343 720T410 973T594 1156T847 1224T1100 1157T1283 973T1351 720T1284 467T1100 284T847
216T594 283T411 467ZM271 837T271 720T316 497T439 313T623 190T847 144T1070 189T1254 312T1377 496T1423 720T1378 943T1255 1127T1071 1250T847 1296T624 1251T440 1128T317 944ZM199 588T199 720T250 972T388 1178T595 1316T847 1368T1099 1317T1305 1179T1443
972T1495 720T1444 468T1306 262T1099 124T847 72T595 123T389 261T251 468ZM127 866T127 720T184 441T337 211T567 57T847 0T1126 57T1356 210T1510 440T1567 720T1510 999T1357 1229T1127 1383T847 1440T568 1383T338 1230T184 1000ZM55 559T55 720T118 1027T287
1280T539 1449T847 1512T1154 1449T1407 1280T1576 1028T1639 720T1576 413T1407 160T1155 -9T847 -72T540 -9T287 160T118 412Z" />
<glyph unicode="&#xf4;" glyph-name="ocircumflex" horiz-adv-x="1707" d="M1156 1614L963 2102H886L1079 1614H1156ZM770 1614L820 1742L779 1834L692 1614H770ZM615 1614L769 2006L924 1614H1002L809 2102H731L538 1614H615ZM559 839T559 720T643 517T847 432T1050
516T1135 720T1051 923T847 1008T644 924ZM487 571T487 720T592 974T847 1080T1101 975T1207 720T1102 466T847 360T593 465ZM415 898T415 720T541 415T847 288T1152 415T1279 720T1153 1025T847 1152T542 1025ZM343 583T343 720T410 973T594 1156T847 1224T1100
1157T1283 973T1351 720T1284 467T1100 284T847 216T594 283T411 467ZM271 837T271 720T316 497T439 313T623 190T847 144T1070 189T1254 312T1377 496T1423 720T1378 943T1255 1127T1071 1250T847 1296T624 1251T440 1128T317 944ZM199 588T199 720T250 972T388
1178T595 1316T847 1368T1099 1317T1305 1179T1443 972T1495 720T1444 468T1306 262T1099 124T847 72T595 123T389 261T251 468ZM127 866T127 720T184 441T337 211T567 57T847 0T1126 57T1356 210T1510 440T1567 720T1510 999T1357 1229T1127 1383T847 1440T568
1383T338 1230T184 1000ZM55 559T55 720T118 1027T287 1280T539 1449T847 1512T1154 1449T1407 1280T1576 1028T1639 720T1576 413T1407 160T1155 -9T847 -72T540 -9T287 160T118 412Z" />
<glyph unicode="&#xf5;" glyph-name="otilde" horiz-adv-x="1707" d="M1242 1974H1314Q1314 1929 1306 1894T1285 1837T1251 1799T1214 1775T1172 1763T1133 1759T1098 1758H595Q566 1758 552 1757T514 1749T480 1727T460 1685T451 1614H379Q379 1659 387 1694T408
1751T442 1789T479 1813T521 1825T560 1829T595 1830H1098Q1127 1830 1141 1831T1179 1839T1213 1861T1233 1903T1242 1974ZM1386 1974H1458Q1458 1916 1450 1868T1430 1784T1397 1722T1356 1677T1307 1647T1256 1628T1201 1619T1149 1615T1098 1614H595V1686H1098Q1130
1686 1146 1686T1192 1689T1237 1697T1276 1712T1313 1736T1343 1772T1367 1822T1380 1888T1386 1974ZM595 1974H1098V1902H595Q563 1902 547 1902T501 1899T456 1891T417 1876T380 1852T350 1816T326 1766T313 1700T307 1614H235Q235 1672 243 1720T263 1804T296
1866T337 1911T386 1941T437 1960T492 1969T544 1973T595 1974ZM559 839T559 720T643 517T847 432T1050 516T1135 720T1051 923T847 1008T644 924ZM487 571T487 720T592 974T847 1080T1101 975T1207 720T1102 466T847 360T593 465ZM415 898T415 720T541 415T847
288T1152 415T1279 720T1153 1025T847 1152T542 1025ZM343 583T343 720T410 973T594 1156T847 1224T1100 1157T1283 973T1351 720T1284 467T1100 284T847 216T594 283T411 467ZM271 837T271 720T316 497T439 313T623 190T847 144T1070 189T1254 312T1377 496T1423
720T1378 943T1255 1127T1071 1250T847 1296T624 1251T440 1128T317 944ZM199 588T199 720T250 972T388 1178T595 1316T847 1368T1099 1317T1305 1179T1443 972T1495 720T1444 468T1306 262T1099 124T847 72T595 123T389 261T251 468ZM127 866T127 720T184 441T337
211T567 57T847 0T1126 57T1356 210T1510 440T1567 720T1510 999T1357 1229T1127 1383T847 1440T568 1383T338 1230T184 1000ZM55 559T55 720T118 1027T287 1280T539 1449T847 1512T1154 1449T1407 1280T1576 1028T1639 720T1576 413T1407 160T1155 -9T847 -72T540
-9T287 160T118 412Z" />
<glyph unicode="&#xf6;" glyph-name="odieresis" horiz-adv-x="1707" d="M1261 1838H1333V1614H1261V1838ZM1117 1838H1189V1614H1117V1838ZM973 1838H1045V1614H973V1838ZM647 1838H719V1614H647V1838ZM503 1838H575V1614H503V1838ZM359 1838H431V1614H359V1838ZM559
839T559 720T643 517T847 432T1050 516T1135 720T1051 923T847 1008T644 924ZM487 571T487 720T592 974T847 1080T1101 975T1207 720T1102 466T847 360T593 465ZM415 898T415 720T541 415T847 288T1152 415T1279 720T1153 1025T847 1152T542 1025ZM343 583T343
720T410 973T594 1156T847 1224T1100 1157T1283 973T1351 720T1284 467T1100 284T847 216T594 283T411 467ZM271 837T271 720T316 497T439 313T623 190T847 144T1070 189T1254 312T1377 496T1423 720T1378 943T1255 1127T1071 1250T847 1296T624 1251T440 1128T317
944ZM199 588T199 720T250 972T388 1178T595 1316T847 1368T1099 1317T1305 1179T1443 972T1495 720T1444 468T1306 262T1099 124T847 72T595 123T389 261T251 468ZM127 866T127 720T184 441T337 211T567 57T847 0T1126 57T1356 210T1510 440T1567 720T1510 999T1357
1229T1127 1383T847 1440T568 1383T338 1230T184 1000ZM55 559T55 720T118 1027T287 1280T539 1449T847 1512T1154 1449T1407 1280T1576 1028T1639 720T1576 413T1407 160T1155 -9T847 -72T540 -9T287 160T118 412Z" />
<glyph unicode="&#xf7;" glyph-name="divide" horiz-adv-x="533" d="M161 94H89V454H161V94ZM305 94H233V454H305V94ZM449 94H377V454H449V94ZM-60 722H590V794H-60V722ZM-60 650H590V578H-60V650ZM161 912H89V1272H161V912ZM305 912H233V1272H305V912ZM449 912H377V1272H449V912Z"
/>
<glyph unicode="&#xf8;" glyph-name="oslash" horiz-adv-x="1705" d="M558 839T558 720T642 517T846 432T1049 516T1134 720T1050 923T846 1008T643 924ZM486 571T486 720T591 974T846 1080T1100 975T1206 720T1101 466T846 360T592 465ZM414 898T414 720T541
415T846 288T1151 415T1278 720T1151 1025T846 1152T541 1025ZM342 512T342 720T490 1076T846 1224T1202 1076T1350 720T1202 364T846 216T490 364ZM270 837T270 720T315 497T438 313T622 190T846 144T1069 189T1253 312T1376 496T1422 720T1377 943T1254 1127T1070
1250T846 1296T623 1251T439 1128T316 944ZM198 588T198 720T249 972T387 1178T594 1316T846 1368T1098 1317T1304 1179T1442 972T1494 720T1443 468T1305 262T1098 124T846 72T594 123T388 261T250 468ZM126 866T126 720T183 441T336 211T566 57T846 0T1125 57T1355
210T1509 440T1566 720T1509 999T1356 1229T1126 1383T846 1440T567 1383T337 1230T183 1000ZM54 559T54 720T117 1027T286 1280T538 1449T846 1512T1153 1449T1406 1280T1575 1028T1638 720T1575 413T1406 160T1154 -9T846 -72T539 -9T286 160T117 412ZM1404 1327L1346
1371L1431 1518L1494 1482L1404 1327ZM531 -44L600 -69L519 -209L457 -173L531 -44ZM1290 1416L1226 1450L1307 1591L1369 1554L1290 1416ZM403 23L466 -14L395 -137L332 -100L403 23ZM1162 1485L1092 1507L1182 1663L1244 1627L1162 1485ZM285 107L341 59L270
-64L207 -28L285 107Z" />
<glyph unicode="&#xf9;" glyph-name="ugrave" horiz-adv-x="1630" d="M925 1718L982 1770L315 2096L259 2044L925 1718ZM811 1614L868 1666L202 1992L144 1939L811 1614ZM1038 638V1440H1110V638Q1110 524 1023 442T812 360T602 442T514 638V1440H586V638Q586
553 652 493T812 432T971 492T1038 638ZM1182 638V1440H1254V638Q1254 463 1124 340T812 216T500 339T370 638V1440H442V638Q442 493 550 391T812 288Q964 288 1073 390T1182 638ZM1326 638V1440H1398V638Q1398 485 1319 355T1105 148T812 72T519 148T305 354T226
638V1440H298V638Q298 505 367 391T554 211T812 144T1069 210T1257 391T1326 638ZM1470 638V1440H1542V638Q1542 494 1484 363T1328 136T1095 -15T812 -72T529 -16T296 136T140 362T82 638V1440H154V638Q154 466 242 319T482 86T812 0T1141 86T1381 319T1470 638Z"
/>
<glyph unicode="&#xfa;" glyph-name="uacute" horiz-adv-x="1630" d="M698 1718L641 1770L1308 2096L1365 2044L698 1718ZM812 1614L755 1666L1421 1992L1479 1939L812 1614ZM1038 638V1440H1110V638Q1110 524 1023 442T812 360T602 442T514 638V1440H586V638Q586
553 652 493T812 432T971 492T1038 638ZM1182 638V1440H1254V638Q1254 463 1124 340T812 216T500 339T370 638V1440H442V638Q442 493 550 391T812 288Q964 288 1073 390T1182 638ZM1326 638V1440H1398V638Q1398 485 1319 355T1105 148T812 72T519 148T305 354T226
638V1440H298V638Q298 505 367 391T554 211T812 144T1069 210T1257 391T1326 638ZM1470 638V1440H1542V638Q1542 494 1484 363T1328 136T1095 -15T812 -72T529 -16T296 136T140 362T82 638V1440H154V638Q154 466 242 319T482 86T812 0T1141 86T1381 319T1470 638Z"
/>
<glyph unicode="&#xfb;" glyph-name="ucircumflex" horiz-adv-x="1630" d="M1121 1614L928 2102H851L1044 1614H1121ZM735 1614L785 1742L744 1834L657 1614H735ZM580 1614L734 2006L889 1614H967L774 2102H696L503 1614H580ZM1038 638V1440H1110V638Q1110 524
1023 442T812 360T602 442T514 638V1440H586V638Q586 553 652 493T812 432T971 492T1038 638ZM1182 638V1440H1254V638Q1254 463 1124 340T812 216T500 339T370 638V1440H442V638Q442 493 550 391T812 288Q964 288 1073 390T1182 638ZM1326 638V1440H1398V638Q1398
485 1319 355T1105 148T812 72T519 148T305 354T226 638V1440H298V638Q298 505 367 391T554 211T812 144T1069 210T1257 391T1326 638ZM1470 638V1440H1542V638Q1542 494 1484 363T1328 136T1095 -15T812 -72T529 -16T296 136T140 362T82 638V1440H154V638Q154
466 242 319T482 86T812 0T1141 86T1381 319T1470 638Z" />
<glyph unicode="&#xfc;" glyph-name="udieresis" horiz-adv-x="1630" d="M1226 1838H1298V1614H1226V1838ZM1082 1838H1154V1614H1082V1838ZM938 1838H1010V1614H938V1838ZM612 1838H684V1614H612V1838ZM468 1838H540V1614H468V1838ZM324 1838H396V1614H324V1838ZM1038
638V1440H1110V638Q1110 524 1023 442T812 360T602 442T514 638V1440H586V638Q586 553 652 493T812 432T971 492T1038 638ZM1182 638V1440H1254V638Q1254 463 1124 340T812 216T500 339T370 638V1440H442V638Q442 493 550 391T812 288Q964 288 1073 390T1182 638ZM1326
638V1440H1398V638Q1398 485 1319 355T1105 148T812 72T519 148T305 354T226 638V1440H298V638Q298 505 367 391T554 211T812 144T1069 210T1257 391T1326 638ZM1470 638V1440H1542V638Q1542 494 1484 363T1328 136T1095 -15T812 -72T529 -16T296 136T140 362T82
638V1440H154V638Q154 466 242 319T482 86T812 0T1141 86T1381 319T1470 638Z" />
<glyph unicode="&#xfd;" glyph-name="yacute" horiz-adv-x="1502" d="M638 1718L581 1770L1248 2096L1305 2044L638 1718ZM752 1614L695 1666L1361 1992L1419 1939L752 1614ZM1400 1440H1472L1019 486V0H947V486L1400 1440ZM1256 1440H1328L875 486V0H803V486L1256
1440ZM1112 1440H1184L731 486V0H659V486L1112 1440ZM968 1440H1040L587 486V0H515V486L32 1440H104L550 559L968 1440ZM177 1440H249L606 761L570 682L177 1440ZM321 1440H394L678 919L641 840L321 1440ZM467 1440H539L750 1076L714 997L467 1440Z" />
<glyph unicode="&#xfe;" glyph-name="thorn" horiz-adv-x="1706" d="M526 1656H598V-216H526V1656ZM382 1656H454V-216H382V1656ZM238 1656H310V-216H238V1656ZM94 1656H166V-216H94V1656ZM642 862H1063Q1153 862 1216 808T1279 656Q1279 580 1213 520T1063 460H642V388H1063Q1178
388 1264 469T1351 656Q1351 783 1267 858T1063 934H642V862ZM642 1006H1063Q1211 1006 1317 908T1423 656Q1423 521 1315 419T1063 316H642V244H1063Q1237 244 1366 367T1495 656Q1495 836 1368 957T1063 1078H642V1006ZM642 1150H1063Q1198 1150 1313 1086T1498
908T1567 656Q1567 529 1499 417T1314 239T1063 172H642V100H1063Q1177 100 1283 145T1468 265T1592 443T1639 656Q1639 785 1593 893T1468 1072T1285 1183T1063 1222H642V1150ZM642 604V532H1063Q1122 532 1164 568T1207 656Q1207 790 1063 790H642V718H1063Q1135
718 1135 656Q1135 634 1114 619T1063 604H642Z" />
<glyph unicode="&#xff;" glyph-name="ydieresis" horiz-adv-x="1502" d="M1166 1838H1238V1614H1166V1838ZM1022 1838H1094V1614H1022V1838ZM878 1838H950V1614H878V1838ZM552 1838H624V1614H552V1838ZM408 1838H480V1614H408V1838ZM264 1838H336V1614H264V1838ZM1400
1440H1472L1019 486V0H947V486L1400 1440ZM1256 1440H1328L875 486V0H803V486L1256 1440ZM1112 1440H1184L731 486V0H659V486L1112 1440ZM968 1440H1040L587 486V0H515V486L32 1440H104L550 559L968 1440ZM177 1440H249L606 761L570 682L177 1440ZM321 1440H394L678
919L641 840L321 1440ZM467 1440H539L750 1076L714 997L467 1440Z" />
<glyph unicode="&#x2013;" glyph-name="endash" horiz-adv-x="970" d="M90 936V1008H882V936H90ZM90 792V864H882V792H90ZM90 648V720H882V648H90Z" />
<glyph unicode="&#x2014;" glyph-name="emdash" horiz-adv-x="1260" d="M90 936V1008H1172V936H90ZM90 792V864H1172V792H90ZM90 648V720H1172V648H90Z" />
<glyph unicode="&#x2018;" glyph-name="quoteleft" horiz-adv-x="521" d="M438 1296V1008H366V1296H438ZM438 1512V1440Q396 1440 368 1431T325 1411T304 1377T295 1340T294 1296V1008H222V1296Q222 1318 222 1331T227 1369T239 1411T262 1449T300 1482T358 1503T438
1512ZM438 1656V1584Q391 1584 353 1579T286 1565T236 1541T200 1512T176 1475T161 1435T154 1390T151 1345T150 1296V1008H78V1296Q78 1328 78 1346T82 1399T92 1454T110 1505T140 1554T185 1594T248 1628T331 1648T438 1656Z" />
<glyph unicode="&#x2019;" glyph-name="quoteright" horiz-adv-x="515" d="M82 1368V1656H154V1368H82ZM82 1152V1224Q124 1224 152 1233T195 1253T216 1287T225 1324T226 1368V1656H298V1368Q298 1346 298 1333T293 1295T281 1253T258 1215T220 1182T162 1161T82
1152ZM82 1008V1080Q129 1080 167 1085T234 1099T284 1123T320 1152T344 1189T359 1229T366 1274T369 1319T370 1368V1656H442V1368Q442 1336 442 1318T438 1265T428 1210T410 1159T380 1110T335 1070T272 1036T189 1016T82 1008Z" />
<glyph unicode="&#x201a;" glyph-name="quotesinglbase" horiz-adv-x="518" d="M79 73V361H151V73H79ZM79 -143V-71Q121 -71 149 -62T192 -42T213 -8T222 29T223 73V361H295V73Q295 51 295 38T290 0T278 -42T255 -80T217 -113T159 -134T79 -143ZM79 -287V-215Q126
-215 164 -210T231 -196T281 -172T317 -143T341 -106T356 -66T363 -21T366 24T367 73V361H439V73Q439 41 439 23T435 -30T425 -85T407 -136T377 -185T332 -225T269 -259T186 -279T79 -287Z" />
<glyph unicode="&#x201c;" glyph-name="quotedblleft" horiz-adv-x="1097" d="M438 1296V1008H366V1296H438ZM438 1512V1440Q396 1440 368 1431T325 1411T304 1377T295 1340T294 1296V1008H222V1296Q222 1318 222 1331T227 1369T239 1411T262 1449T300 1482T358
1503T438 1512ZM438 1656V1584Q391 1584 353 1579T286 1565T236 1541T200 1512T176 1475T161 1435T154 1390T151 1345T150 1296V1008H78V1296Q78 1328 78 1346T82 1399T92 1454T110 1505T140 1554T185 1594T248 1628T331 1648T438 1656ZM1014 1296V1008H942V1296H1014ZM1014
1512V1440Q972 1440 944 1431T901 1411T880 1377T871 1340T870 1296V1008H798V1296Q798 1318 798 1331T803 1369T815 1411T838 1449T876 1482T934 1503T1014 1512ZM1014 1656V1584Q967 1584 929 1579T862 1565T812 1541T776 1512T752 1475T737 1435T730 1390T727
1345T726 1296V1008H654V1296Q654 1328 654 1346T658 1399T668 1454T686 1505T716 1554T761 1594T824 1628T907 1648T1014 1656Z" />
<glyph unicode="&#x201d;" glyph-name="quotedblright" horiz-adv-x="1091" d="M658 1368V1656H730V1368H658ZM658 1152V1224Q700 1224 728 1233T771 1253T792 1287T801 1324T802 1368V1656H874V1368Q874 1346 874 1333T869 1295T857 1253T834 1215T796 1182T738
1161T658 1152ZM658 1008V1080Q705 1080 743 1085T810 1099T860 1123T896 1152T920 1189T935 1229T942 1274T945 1319T946 1368V1656H1018V1368Q1018 1336 1018 1318T1014 1265T1004 1210T986 1159T956 1110T911 1070T848 1036T765 1016T658 1008ZM82 1368V1656H154V1368H82ZM82
1152V1224Q124 1224 152 1233T195 1253T216 1287T225 1324T226 1368V1656H298V1368Q298 1346 298 1333T293 1295T281 1253T258 1215T220 1182T162 1161T82 1152ZM82 1008V1080Q129 1080 167 1085T234 1099T284 1123T320 1152T344 1189T359 1229T366 1274T369 1319T370
1368V1656H442V1368Q442 1336 442 1318T438 1265T428 1210T410 1159T380 1110T335 1070T272 1036T189 1016T82 1008Z" />
<glyph unicode="&#x201e;" glyph-name="quotedblbase" horiz-adv-x="1093" d="M654 73V361H726V73H654ZM654 -143V-71Q696 -71 724 -62T767 -42T788 -8T797 29T798 73V361H870V73Q870 51 870 38T865 0T853 -42T830 -80T792 -113T734 -134T654 -143ZM654 -287V-215Q701
-215 739 -210T806 -196T856 -172T892 -143T916 -106T931 -66T938 -21T941 24T942 73V361H1014V73Q1014 41 1014 23T1010 -30T1000 -85T982 -136T952 -185T907 -225T844 -259T761 -279T654 -287ZM79 73V361H151V73H79ZM79 -143V-71Q121 -71 149 -62T192 -42T213
-8T222 29T223 73V361H295V73Q295 51 295 38T290 0T278 -42T255 -80T217 -113T159 -134T79 -143ZM79 -287V-215Q126 -215 164 -210T231 -196T281 -172T317 -143T341 -106T356 -66T363 -21T366 24T367 73V361H439V73Q439 41 439 23T435 -30T425 -85T407 -136T377
-185T332 -225T269 -259T186 -279T79 -287Z" />
<glyph unicode="&#x2022;" glyph-name="bullet" horiz-adv-x="1028" d="M288 822T288 720T351 555T516 492T681 555T744 720T681 885T516 948T351 885ZM216 588T216 720T300 936T516 1020T732 936T816 720T732 504T516 420T300 504ZM144 882T144 720T249 453T516
348T783 453T888 720T783 987T516 1092T249 987ZM72 529T72 720T198 1037T516 1164T833 1038T960 720T834 403T516 276T199 402Z" />
<glyph unicode="&#x2039;" glyph-name="guilsinglleft" horiz-adv-x="953" d="M870 947V870L175 595L870 320V243L78 556V634L870 947ZM870 1102V1024L78 711V788L870 1102ZM870 1257V1180L78 866V943L870 1257ZM870 474V397L346 604L438 645L870 474ZM870 629V552L536
684L635 722L870 629Z" />
<glyph unicode="&#x203a;" glyph-name="guilsinglright" horiz-adv-x="954" d="M85 870V947L877 634V556L85 243V320L780 595L85 870ZM85 1024V1102L877 788V711L85 1024ZM85 1180V1257L877 943V866L85 1180ZM85 397V474L517 645L609 604L85 397ZM85 552V629L320
722L419 684L85 552Z" />
</font>
</defs>
</svg>
